<?xml version="1.0" encoding="utf-8"?>
<!-- Generator: Adobe Illustrator 22.0.1, SVG Export Plug-In . SVG Version: 6.00 Build 0)  -->
<svg version="1.1" id="Layer_1" xmlns="http://www.w3.org/2000/svg" xmlns:xlink="http://www.w3.org/1999/xlink" x="0px" y="0px"
	 viewBox="0 0 136 166" style="enable-background:new 0 0 136 166;" xml:space="preserve">
<style type="text/css">
	.st0{fill:#00783D;}
	.st1{fill:#E7F2EC;}
	.st2{fill:#0A7D44;}
	.st3{fill:#F0F6F3;}
	.st4{fill:#057A40;}
	.st5{fill:#047A40;}
	.st6{fill:#02783E;}
	.st7{fill:#13814B;}
	.st8{fill:#0F8048;}
	.st9{fill:#E6F2EC;}
	.st10{fill:#E6F2EB;}
</style>
<g>
	<path class="st0" d="M1,92c0-1,0-2,0-3c6.6-9.6,11.8-19.9,17.4-30.1c2.4-4.4,5-6.3,10.4-6.2c26,0.3,52,0.4,77.9,0
		c7.2-0.1,11.3,1.9,14.6,8.5c4.7,9.2,9.4,18.5,15.7,26.9c0,1.3,0,2.7,0,4c-3.3,2.1-5.3,5.4-7.8,8.2c-17.8,20.2-35.6,40.5-53.3,60.7
		c-7.2,6.7-5.2,7.1-12.8,0c-20.1-22.7-40.3-45.4-60.4-68C2.3,92.5,1.6,92.3,1,92z M45.7,87c3.3,0,5.4-0.1,7.6,0c2.5,0.1,6.1-1,6,3.2
		C59,94.3,55.4,93,53,93.1c-2.2,0.2-4.3,0.1-6.5,0c-2.4-0.1-2.8,0.7-1.9,2.9c8.2,19.2,16.4,38.5,25,58.5
		c8.7-20.8,17.1-40.9,25.7-61.4c-4.7,0-8.5,0-12.3,0c-2,0-3.8-0.5-3.9-2.9C79,87.7,80.8,87,83,87c3,0,6.1,0,9.9,0
		c-7.8-8.6-14.8-16.3-21.8-24.2c-1.4-1.6-2.3-1.9-3.8-0.1C60.5,70.6,53.4,78.3,45.7,87z M56.2,143c0.4-1.3,0.6-1.7,0.5-1.9
		c-6.4-15.1-12.9-30.3-19.3-45.4c-0.5-1.2-0.9-2.5-2.7-2.5c-7.4,0-14.7,0-23.1,0C27,110.3,41.4,126.4,56.2,143z M82,141.6
		c0.4,0.3,0.8,0.6,1.2,0.9c14.3-16.2,28.5-32.3,43.5-49.3c-8.2,0-15.1,0.1-22.1,0c-1.8,0-2.7,0.7-3.3,2.3
		C94.9,110.8,88.5,126.2,82,141.6z M28.9,59.1c3.6,8.4,7,16.4,10.7,25c7.7-8.6,14.8-16.5,22.3-25C50.4,59.1,39.9,59.1,28.9,59.1z
		 M76.5,59.2c7.2,8,13.8,15.3,20.4,22.5c0.9,1,2,2.9,3.2,0.2c3.1-7.4,6.2-14.8,9.5-22.6C98.4,59.2,88,59.2,76.5,59.2z M10.1,87
		c7.4,0,14,0,20.6,0c1.3,0,3,0.2,2.1-2c-2.9-7-6-14-9.3-21.7C18.8,71.5,14.7,79,10.1,87z M128.2,86.8c-4.5-8-8.7-15.4-13.4-23.5
		c-3.5,8.4-6.6,15.8-9.8,23.5C112.8,86.8,120.1,86.8,128.2,86.8z"/>
	<path class="st1" d="M137,88c-6.3-8.3-11-17.6-15.7-26.9c-3.3-6.6-7.4-8.6-14.6-8.5c-26,0.5-51.9,0.4-77.9,0
		c-5.3-0.1-7.9,1.8-10.4,6.2C12.8,69.1,7.6,79.4,1,89c0-1,0-2,0-3c1.8-7.3,3.3-14.6,6.6-21.6C13.5,52.5,21.8,43,33,36
		c1.4-0.9,2.6-2,4-3c1.1,1.8,2.2,3.6,3.4,5.4c1,1.5,2.5,2.3,4.2,1.4c1.9-1,2.2-2.7,1.3-4.6c-0.9-1.8-1.8-3.5-2.8-5.2
		c7.4-2,14.7-4.6,22.6-4c0.8,2.5-1.4,6.9,3.3,7c4.6,0.1,2.7-4.4,3.7-6.9c7.8-0.8,14.8,2.4,22.1,3.9c-0.9,1.7-1.9,3.4-2.7,5.2
		c-0.9,1.9-0.6,3.6,1.4,4.6c1.7,0.8,3.2,0.2,4.2-1.4c1-1.5,2-3,2.9-4.4c11.9,5.7,20.6,14.7,27.2,26c4.7,8.1,7.1,17,9,26
		C137,86.7,137,87.3,137,88z"/>
	<path class="st1" d="M63.1,160.9c-15.1-0.8-28.1-6.8-39.3-16.7c-11.4-10.1-18.2-22.9-21.7-37.6c-0.2-1-0.1-2-1.1-2.6c0-4,0-8,0-12
		c0.6,0.3,1.3,0.5,1.7,0.9C22.9,115.6,43,138.3,63.1,160.9z"/>
	<path class="st1" d="M136,103c-1,13.2-7,24.4-15.1,34.4c-10.8,13.2-25.5,20.2-42,23.5c-1,0.2-2,0-3,0
		c17.8-20.3,35.5-40.5,53.3-60.7c2.5-2.8,4.5-6.1,7.8-8.2c0,1.7,0,3.3,0,5C135.2,98.8,136.3,101,136,103z"/>
	<path class="st2" d="M71,1c0.9,1.9,2.3,3.9,0,5.7c-1.1,0.9-2.6,0.9-3.7,0C64.9,5,66.5,2.9,67,1C68.3,1,69.7,1,71,1z"/>
	<path class="st3" d="M136,103c0.3-2-0.8-4.2,1-6c0,2,0,4,0,6C136.7,103,136.3,103,136,103z"/>
	<path class="st4" d="M100.9,34c-1,1.5-2,3-2.9,4.4c-1,1.6-2.5,2.2-4.2,1.4c-2-1-2.2-2.7-1.4-4.6c0.8-1.8,1.8-3.5,2.7-5.2
		c1.2-1.9,2.5-3.9,3.7-5.8c1.1-1.6,2.6-2,4.3-1.1c1.6,1,2.1,2.4,1.2,4.2C103.1,29.6,102,31.8,100.9,34z"/>
	<path class="st5" d="M43.2,30c0.9,1.7,1.9,3.4,2.8,5.2c0.9,1.9,0.6,3.6-1.3,4.6c-1.7,0.9-3.2,0.1-4.2-1.4c-1.2-1.8-2.3-3.6-3.4-5.4
		c-0.9-1.8-2-3.5-2.7-5.3c-0.7-1.6-0.9-3.4,0.9-4.5c1.8-1.1,3.5-0.6,4.7,1.2C41,26.3,42.1,28.1,43.2,30z"/>
	<path class="st6" d="M72.9,26.1c-1,2.5,0.8,6.9-3.7,6.9c-4.7-0.1-2.5-4.5-3.3-7c0.1-2.5,0.1-4.9,0.2-7.4c0.2-4.5,1.4-5.2,5.8-3.6
		C72.2,18.7,72.6,22.4,72.9,26.1L72.9,26.1z"/>
	<path class="st7" d="M33.6,14.5c-0.1,1.7-1,3.1-2.9,3.2c-2,0.2-3.2-1.1-3.4-2.9c-0.2-1.9,0.9-3.2,2.9-3.3
		C32.1,11.4,33.3,12.4,33.6,14.5z"/>
	<path class="st8" d="M111,15.1c-0.2,1.7-1.4,2.8-3.3,2.7c-1.9-0.1-2.9-1.4-2.9-3.3c0.1-2,1.4-3,3.2-2.9
		C110,11.7,111.1,12.8,111,15.1z"/>
	<path class="st1" d="M72.9,26.1c-0.3-3.7-0.7-7.4-1-11.1C74.4,18.5,72.7,22.4,72.9,26.1z"/>
	<path class="st1" d="M45.7,87c7.8-8.7,14.8-16.4,21.7-24.3c1.5-1.8,2.4-1.5,3.8,0.1c6.9,7.8,14,15.6,21.8,24.2c-3.9,0-6.9,0-9.9,0
		c-2.3,0-4.1,0.7-4,3.3c0.1,2.4,1.8,2.9,3.9,2.9c3.8,0,7.7,0,12.3,0c-8.6,20.5-17,40.6-25.7,61.4c-8.5-20-16.7-39.3-25-58.5
		c-1-2.2-0.6-3,1.9-2.9c2.2,0.1,4.3,0.1,6.5,0c2.4-0.2,6.1,1.2,6.2-2.9c0.1-4.2-3.5-3.1-6-3.2C51.1,86.9,49,87,45.7,87z M69,93.2
		c2-0.1,3.2-1,3.2-3c0-1.9-1-3.1-3-3.2c-1.9,0-3.1,1.1-3.2,3C66,91.9,67.1,93,69,93.2z"/>
	<path class="st9" d="M56.2,143C41.4,126.4,27,110.3,11.7,93.2c8.4,0,15.8,0,23.1,0c1.7,0,2.1,1.3,2.7,2.5
		c6.4,15.1,12.9,30.3,19.3,45.4C56.8,141.3,56.6,141.7,56.2,143z"/>
	<path class="st9" d="M82,141.6c6.5-15.4,12.9-30.8,19.3-46.2c0.6-1.5,1.5-2.3,3.3-2.3c6.9,0.1,13.9,0,22.1,0
		c-15,17-29.3,33.2-43.5,49.3C82.8,142.2,82.4,141.9,82,141.6z"/>
	<path class="st1" d="M28.9,59.1c11,0,21.5,0,33,0c-7.6,8.5-14.7,16.4-22.3,25C35.9,75.5,32.5,67.5,28.9,59.1z"/>
	<path class="st1" d="M76.5,59.2c11.5,0,21.8,0,33,0c-3.2,7.8-6.3,15.2-9.5,22.6c-1.2,2.8-2.3,0.8-3.2-0.2
		C90.3,74.4,83.8,67.2,76.5,59.2z"/>
	<path class="st10" d="M10.1,87c4.5-8,8.7-15.5,13.4-23.8C26.8,71,29.9,78,32.8,85c0.9,2.2-0.8,2-2.1,2C24.1,87,17.5,87,10.1,87z"/>
	<path class="st9" d="M128.2,86.8c-8.1,0-15.4,0-23.2,0c3.2-7.7,6.3-15.2,9.8-23.5C119.5,71.5,123.7,78.9,128.2,86.8z"/>
	<path class="st2" d="M69,93.2c-1.9-0.1-3-1.3-2.9-3.1c0-1.9,1.2-3,3.2-3c2,0,3,1.2,3,3.2C72.2,92.2,71,93.1,69,93.2z"/>
</g>
</svg>
