<?xml version="1.0" encoding="utf-8"?>
<!-- Generator: Adobe Illustrator 22.0.1, SVG Export Plug-In . SVG Version: 6.00 Build 0)  -->
<svg version="1.1" id="Layer_1" xmlns="http://www.w3.org/2000/svg" xmlns:xlink="http://www.w3.org/1999/xlink" x="0px" y="0px"
	 viewBox="0 0 170 145" style="enable-background:new 0 0 170 145;" xml:space="preserve">
<style type="text/css">
	.st0{fill:#00783D;}
	.st1{fill:#11804A;}
	.st2{fill:#BEDCCD;}
	.st3{fill:#118049;}
	.st4{fill:#76B696;}
	.st5{fill:#7FBB9D;}
	.st6{fill:#89C0A5;}
	.st7{fill:#E7F2EC;}
	.st8{fill:#D2E7DC;}
	.st9{fill:#108048;}
	.st10{fill:#DCECE4;}
	.st11{fill:#CFE5D9;}
	.st12{fill:#01783D;}
	.st13{fill:#15834D;}
	.st14{fill:#0E7F47;}
	.st15{fill:#0F7F48;}
	.st16{fill:#0F8048;}
	.st17{fill:#097C43;}
	.st18{fill:#13824B;}
	.st19{fill:#0C7E46;}
	.st20{fill:#13814B;}
	.st21{fill:#097C44;}
	.st22{fill:#057A40;}
	.st23{fill:#057A41;}
</style>
<g>
	<path class="st0" d="M1,84c4.2-3.5,9.4-0.9,14-2.1c4.5,0.6,9.6-0.6,12.1,5c5.6,2.5,11.4,0.6,17.1,1.1c6.5,0.1,11.9,3.1,16.5,7.4
		c6.1,5.6,12,11.5,17.9,17.4c4.5,4.5,4.7,10.1,0.7,14.2c-3.7,3.9-9.4,4.2-13.9,0.3c-4.4-3.8-8.6-7.8-12.9-11.8
		c-1.7-1.5-3.2-3.3-1.1-5.5c2-2.1,3.9-0.9,5.6,0.6c3.9,3.6,7.9,7.2,11.8,10.8c1.7,1.6,3.7,2.8,5.6,0.8c1.9-2.1,0.5-3.9-1.2-5.6
		c-3.7-3.6-7.8-6.9-11.1-10.8c-8.1-9.6-18.4-13.1-30.7-11.9c-2.7,0.3-3.4,1.1-3.3,3.6c0.2,4.2,0.2,8.3,0,12.5
		c-0.1,2.6,0.4,3.8,3.4,4.1c5.8,0.7,10.6,3.7,14.4,8.1c2.9,3.4,5.8,6.9,8.7,10.3c3.1,3.6,7,5.8,11.7,5.9c11.7,0.2,23.3,0.1,35,0.1
		c2.3,0,4.6-0.5,4.6-3.4c0-3.1-2.3-3.6-4.9-3.6c-3.3,0-6.7,0-10,0c-2.3-0.1-4.6-0.6-4.6-3.4c0-2.8,2.2-3.3,4.6-3.2c3,0.1,6,0,9,0
		c10.3,0,14.2,5,11.6,15c-2.2,2.8-4.7,5.1-8.6,5.3c-12.4,0-24.7,0-37.1,0c-6.6-0.6-12.1-3.4-16.5-8.3c-2.9-3.2-5.6-6.6-8.3-9.9
		c-2.8-3.3-6.2-5.4-10.4-6.4c-1.8-0.4-3.1-0.4-4.3,1.3c-2.4,3.5-6.2,3.4-9.9,3.2c-2-0.1-3.3-1.2-3.3-3c0-2.1,1.3-3.3,3.5-3.3
		c1.4,0,3,0.4,4.1-1c1.8-7.8,0-15.8,0.7-23.6c0.4-4.6-1.4-6-5.7-5c-1,0-2,0-3-0.2c-4.5-0.9-5.7,1.1-5.3,5.3
		c0.4,4.3,0.1,8.6,0.1,12.9c-0.1,5.6-1.6,6.7-6.8,4.9C1,102.7,1,93.3,1,84z"/>
	<path class="st0" d="M60.8,6c1.8-1.7,3.5-3.5,6.1-4c2.3,0,4.7-0.1,7-0.1c6.7,0,13.4,0,20,0c4.4,0,8.7,0,13.1,0
		c8.6,0.5,13.9,6.2,19.1,12.1c3.5,4.6,6.4,9.9,12.8,11.3c2.9,1.7,5.2,1.6,7.6-1.4c2.1-2.6,5.4-2.9,8.6-2.5c2,0.3,3.4,1.4,3.2,3.7
		c-0.2,1.9-1.4,2.8-3.3,3c-1.4,0.2-3-0.8-4,0.9c-1.1,9.3-1.1,18.6,0.1,27.9l0.1,0.1c4.2,1.6,8.5,1.7,12.8,0.1
		c0.1-6.4,0.2-12.8,0.2-19.2c0-2,0.1-4,2.1-5.2c2.1-1.3,3.3,0.6,4.8,1.4c0,9.7,0,19.3,0,29c-1-0.2-1.3,0.9-2,1.2
		c-4,0.6-8.1-0.5-12.1,0.7c0,0,0,0,0,0c-2.9-0.7-6.7,0.6-8.6-1.7c-4.7-5.5-10.8-4-16.5-3.9c-8.1,0.1-15-2.7-20.8-8.2
		c-6-5.6-11.8-11.3-17.6-17c-4.4-4.4-4.6-10.1-0.7-14.2c3.7-3.8,9.6-4.1,14-0.4c4.4,3.8,8.6,7.8,12.9,11.8c1.7,1.6,3,3.4,1,5.6
		c-2,2.2-3.9,0.9-5.6-0.7c-3.9-3.6-7.9-7.2-11.8-10.8c-1.7-1.6-3.7-2.9-5.6-0.8c-1.8,2-0.7,4,1.1,5.6c4.1,3.9,8.6,7.5,12.2,11.8
		c8,9.6,18.4,11.8,30.1,11c2.1-0.2,2.9-0.8,2.9-3c-0.1-4.7-0.1-9.3,0-14c0.1-2-0.5-2.8-2.7-3.1c-6.9-0.9-12.4-4.5-16.6-10
		c-2.3-2.9-4.6-5.7-7-8.4c-3.3-3.8-7.6-6.1-12.6-6.2c-11.3-0.2-22.6,0-34-0.1c-2.6,0-4.9,0.8-4.8,3.8c0.1,3.2,2.6,3.3,5.1,3.3
		c4,0,8-0.1,12,0.1c2.2,0.1,4,1.3,3.7,3.8c-0.2,2.2-1.9,2.9-4,2.9c-3.7,0-7.3,0-11,0C61.5,22,57.2,15.8,60.8,6z"/>
	<path class="st1" d="M171,27c-0.3,0-0.7,0-0.9,0.1c-1.9,1.2-3.7,1.4-5.2-0.6c-1.1-1.5-1-3.2,0.4-4.4c2-1.7,3.9-0.6,5.6,0.8
		C171,24.3,171,25.7,171,27z"/>
	<path class="st2" d="M66,146c0-0.3,0-0.6-0.1-0.8c12.4,0,24.7,0,37.1,0c0,0.3,0,0.5-0.1,0.8C90.7,146,78.3,146,66,146z"/>
	<path class="st3" d="M1,120c1.7-1.1,3.6-1.9,5.5-0.6c1.1,0.7,1.5,2.2,1,3.5c-1.5,3.7-4,2.3-6.5,1.1C1,122.7,1,121.3,1,120z"/>
	<path class="st4" d="M94,1.8c-6.7,0-13.4,0-20,0c0-0.3,0-0.6,0-0.9c6.7,0,13.3,0,20,0C94,1.3,94,1.6,94,1.8z"/>
	<path class="st5" d="M94,1.8c0-0.3,0-0.6,0-0.8c4.3,0,8.7,0,13,0c0,0.3,0,0.6,0.1,0.9C102.7,1.9,98.4,1.8,94,1.8z"/>
	<path class="st6" d="M74,1c0,0.3,0,0.6,0,0.9c-2.3,0-4.7,0.1-7,0.1c0.2-0.3,0.2-0.6,0-0.9C69.3,1,71.7,1,74,1z"/>
	<path class="st7" d="M60.8,6c-3.6,9.9,0.6,16,11.1,16c3.7,0,7.3,0,11,0c2.1,0,3.7-0.8,4-2.9c0.3-2.5-1.5-3.7-3.7-3.8
		c-4-0.2-8-0.1-12-0.1c-2.4,0-5,0-5.1-3.3c0-3,2.2-3.8,4.8-3.8c11.3,0,22.7-0.1,34,0.1c5.1,0.1,9.3,2.3,12.6,6.2
		c2.4,2.8,4.8,5.6,7,8.4c4.3,5.5,9.7,9.1,16.6,10c2.2,0.3,2.7,1,2.7,3.1c-0.1,4.7-0.1,9.3,0,14c0,2.1-0.7,2.8-2.9,3
		c-11.7,0.9-22.1-1.4-30.1-11c-3.6-4.3-8.1-7.9-12.2-11.8c-1.8-1.7-2.9-3.7-1.1-5.6c1.9-2.1,3.9-0.8,5.6,0.8
		c3.9,3.6,7.8,7.2,11.8,10.8c1.7,1.5,3.6,2.9,5.6,0.7c2-2.1,0.7-4-1-5.6c-4.3-4-8.5-8-12.9-11.8c-4.4-3.8-10.3-3.5-14,0.4
		c-3.9,4.1-3.7,9.8,0.7,14.2c5.8,5.8,11.6,11.5,17.6,17c5.8,5.4,12.7,8.2,20.8,8.2c5.7-0.1,11.8-1.6,16.5,3.9c1.9,2.3,5.7,1,8.6,1.7
		c2.5,7,1.3,14.2-0.2,21.1c-5.6,25.7-20.3,44.1-45.1,53.9c2.5-10-1.4-15-11.6-15c-3,0-6,0.1-9,0c-2.4-0.1-4.6,0.4-4.6,3.2
		c0,2.8,2.3,3.4,4.6,3.4c3.3,0.1,6.7,0.1,10,0c2.6,0,4.9,0.4,4.9,3.6c0,2.8-2.3,3.4-4.6,3.4c-11.7,0-23.3,0.1-35-0.1
		c-4.7-0.1-8.6-2.3-11.7-5.9c-2.9-3.4-5.8-6.9-8.7-10.3c-3.8-4.5-8.6-7.5-14.4-8.1c-3-0.3-3.5-1.6-3.4-4.1c0.2-4.2,0.2-8.3,0-12.5
		c-0.1-2.5,0.6-3.3,3.3-3.6c12.3-1.2,22.6,2.2,30.7,11.9c3.3,3.9,7.3,7.3,11.1,10.8c1.7,1.6,3.1,3.5,1.2,5.6
		c-1.9,2.1-3.9,0.9-5.6-0.8c-3.9-3.6-7.8-7.2-11.8-10.8c-1.7-1.6-3.6-2.7-5.6-0.6c-2.1,2.2-0.6,4,1.1,5.5c4.3,4,8.5,8,12.9,11.8
		c4.5,3.9,10.2,3.6,13.9-0.3c3.9-4.2,3.7-9.8-0.7-14.2c-5.9-5.9-11.8-11.8-17.9-17.4C56,91.1,50.6,88,44.1,88
		c-1.8-1.1-0.2-2.3-0.1-3.4c0.2-2.2-0.7-3.6-2.9-3.7c-2.2-0.1-4,1.4-3.3,3.2c1.3,3.9-1,3.5-3.3,3.4c-2.5-0.1-5,0.4-7.4-0.5
		c-2.4-5.6-7.6-4.4-12.1-5c-2.2-7.4-1.2-14.8,0.3-22.1c5-24.1,18.7-41.6,40.9-52.4C57.6,6.7,59.1,5.8,60.8,6z M77.5,63
		c0.1-2.1-0.1-4.3,1.8-6c3.6-3.1,13.5-1.1,15.2,3.2c0.8,2,1.8,3.2,4,2.8c2.7-0.5,2.8-2.7,2.4-4.7c-0.7-4-2.9-7.3-6.9-8.4
		c-3.4-0.9-5.7-1.9-5-6.1c0.3-1.6-1-2.8-2.7-2.9c-1.4-0.1-3.3,0.5-3.1,1.8c1,5.9-3.5,6.6-7.2,8.5c-1.5,0.7-2.8,2.4-3.7,4
		c-5.6,10,0.7,21,12.1,21.4c1.5,0,3,0,4.5,0c2.8,0,4.9,1.2,5.3,4.2c0.4,3.1,1.1,6.5-2,8.8c-4,3-13,0.6-15-4
		c-0.8-1.8-1.9-2.8-3.8-2.4c-1.9,0.4-2.5,1.9-2.5,3.8c-0.1,4.3,3.4,8.9,8.4,9.9c2.6,0.5,3.8,1.3,3.5,4c-0.3,2.4,0.3,4.5,3.3,4.4
		c2.7-0.1,3.2-2.1,3-4.3c-0.2-2.5,0.5-3.6,3.3-4.3c7-1.8,9.8-7.9,8.5-16.9c-0.8-5.7-5.5-9.6-12-9.9c-1.5-0.1-3,0-4.5,0
		C79.1,69.7,77.6,68.3,77.5,63z M46.8,54.5c-0.5-1.9-1.4-3.4-3.6-3.3c-1.8,0.1-3.1,1.3-3.1,3.2c0.1,2.1,1.4,3.4,3.5,3.3
		C45.6,57.7,46.4,56.2,46.8,54.5z M40.4,67.3c2,0,3.3-1.2,3.4-3.2c0.1-1.8-1.1-3.1-3-3.2c-2.1-0.1-3.5,1-3.5,3.2
		C37.2,65.9,38.2,67.1,40.4,67.3z M45,45.6c0.1,1.9,1,3.1,2.9,3.4c2.3,0.3,3.4-1.1,3.7-3c0.2-1.9-0.9-3.1-2.8-3.4
		C46.6,42.4,45.5,43.7,45,45.6z M39.8,70.8c-2.2,0-3.5,1.1-3.5,3.2c0,1.8,1.1,3.1,3,3.1c2.2,0.1,3.5-1,3.5-3.2
		C42.8,72.1,41.8,71,39.8,70.8z M63.2,35.9c2.1-0.4,3.3-1.6,3.1-3.7c-0.2-1.9-1.4-3.1-3.3-2.9c-2,0.2-3.3,1.6-3.1,3.7
		C60.1,34.9,61.5,35.7,63.2,35.9z M81.9,23.3c-1.4,0.4-2.9,1.1-3,3.1c-0.1,2.2,1.1,3.5,3.3,3.5c2,0,3-1.3,3.1-3.2
		C85.3,24.7,84.1,23.6,81.9,23.3z M133.2,73.9c-2.2-0.1-3.4,1-3.6,2.8c-0.2,1.8,0.6,3.2,2.7,3.5c2.2,0.2,3.5-0.9,3.7-3
		C136.1,75.2,134.8,74.2,133.2,73.9z M55.2,35.1c-1.9,0.2-3.2,1.1-3.3,3.1c-0.1,2.2,1.2,3.5,3.3,3.5c1.8,0,3-1.2,3.1-3.2
		C58.2,36.4,57.1,35.4,55.2,35.1z M114.1,114.1c1.7-0.4,3.1-1.5,2.8-3.7c-0.2-1.8-1.6-2.8-3.5-2.7c-1.9,0.1-3.1,1.3-3.1,3.1
		C110.4,112.8,111.7,114.1,114.1,114.1z M95.4,115.6c-2,0.2-3.2,1.3-3.2,3.2c0,2.1,1.2,3.4,3.4,3.3c1.9-0.1,3.1-1.4,3.2-3.1
		C98.8,116.8,97.3,115.8,95.4,115.6z M69,28.4c0.2,2.1,1.3,3.4,3.4,3.4c1.9,0,3-1.2,3.1-3.1c0.1-1.9-1-3.2-2.8-3.4
		C70.6,25.1,69.4,26.4,69,28.4z M136,67c-0.2-1.9-1.2-3.1-3.1-3.1c-2-0.1-3.2,1.1-3.3,2.9c-0.1,2.1,1.2,3.5,3.4,3.4
		C134.9,70.2,135.9,69,136,67z M130.8,83.5c-1.8,0.4-3.2,1.4-3.1,3.3c0.1,2.1,1.3,3.4,3.6,3.2c2-0.2,2.8-1.5,2.8-3.4
		C133.9,84.6,132.6,83.8,130.8,83.5z M126.8,92.9c-2.1,0.1-3,1.3-3,3.2c0,2,1.1,3,3,3.1c2.2,0,3.4-1.2,3.2-3.4
		C129.9,93.8,128.6,92.9,126.8,92.9z M124.2,104.1c-0.1-1.7-0.9-3-2.9-3.1c-2.2-0.1-3.4,1.1-3.4,3.3c0,2,1.2,3,3.1,3
		C122.9,107.2,124.1,106.2,124.2,104.1z M105.1,112.7c-1.8,0.1-3.1,0.9-3.2,2.9c-0.1,1.9,0.7,3.3,2.7,3.4c2.1,0.2,3.5-0.9,3.5-3.1
		C108.2,114,107.1,112.9,105.1,112.7z"/>
	<path class="st7" d="M156.9,64.9c4-1.2,8.1-0.1,12.1-0.7C165,66,160.9,64.9,156.9,64.9z"/>
	<path class="st8" d="M20.9,117.8c0.7-10-0.8-19.5-5-28.6c4.2-1,6.1,0.4,5.7,5C21,102,22.7,110,20.9,117.8z"/>
	<path class="st9" d="M27,86.9c2.4,0.9,4.9,0.4,7.4,0.5c2.3,0.1,4.6,0.6,3.3-3.4c-0.6-1.8,1.1-3.4,3.3-3.2c2.2,0.1,3.1,1.6,2.9,3.7
		c-0.1,1.1-1.6,2.4,0.1,3.4C38.4,87.5,32.6,89.4,27,86.9z"/>
	<path class="st10" d="M126.2,13.9c5.3,2.6,9.4,6.4,12.8,11.3C132.6,23.8,129.7,18.5,126.2,13.9z"/>
	<path class="st11" d="M151,28.9c0,9.3,0.1,18.6,0.1,27.9C149.9,47.5,149.9,38.2,151,28.9z"/>
	<path class="st11" d="M151.2,56.9c4.3,0,8.5,0,12.8,0.1C159.7,58.7,155.4,58.5,151.2,56.9z"/>
	<path class="st12" d="M77.5,63c0.1,5.3,1.5,6.7,6.9,6.8c1.5,0,3,0,4.5,0c6.5,0.3,11.2,4.2,12,9.9c1.3,9-1.5,15.1-8.5,16.9
		c-2.8,0.7-3.5,1.8-3.3,4.3c0.2,2.2-0.3,4.2-3,4.3c-3,0.1-3.6-2-3.3-4.4c0.3-2.8-0.9-3.5-3.5-4c-4.9-1-8.5-5.6-8.4-9.9
		c0-1.9,0.6-3.4,2.5-3.8c1.9-0.4,3,0.6,3.8,2.4c2,4.6,11,7,15,4c3-2.3,2.4-5.7,2-8.8c-0.4-3-2.5-4.1-5.3-4.2c-1.5,0-3,0-4.5,0
		C73,76.2,66.8,65.2,72.3,55.2c0.9-1.5,2.2-3.2,3.7-4c3.7-1.8,8.2-2.5,7.2-8.5c-0.2-1.3,1.6-1.9,3.1-1.8c1.8,0.1,3,1.3,2.7,2.9
		C88.3,48,90.6,49,94,50c4,1.1,6.2,4.4,6.9,8.4c0.4,2,0.3,4.2-2.4,4.7c-2.2,0.4-3.2-0.8-4-2.8c-1.7-4.4-11.6-6.4-15.2-3.2
		C77.4,58.7,77.6,60.9,77.5,63z"/>
	<path class="st3" d="M46.8,54.5c-0.4,1.7-1.3,3.2-3.2,3.3c-2.1,0.1-3.4-1.3-3.5-3.3c-0.1-1.9,1.2-3.1,3.1-3.2
		C45.4,51.1,46.3,52.6,46.8,54.5z"/>
	<path class="st13" d="M40.4,67.3c-2.1-0.2-3.2-1.3-3.2-3.2c0-2.2,1.4-3.3,3.5-3.2c2,0.1,3.1,1.3,3,3.2
		C43.7,66.1,42.4,67.3,40.4,67.3z"/>
	<path class="st14" d="M45,45.6c0.5-2,1.6-3.3,3.8-3c1.9,0.2,3,1.5,2.8,3.4c-0.2,2-1.4,3.3-3.7,3C46,48.8,45.1,47.5,45,45.6z"/>
	<path class="st13" d="M39.8,70.8c2,0.1,3.1,1.3,3,3.2c0,2.2-1.3,3.3-3.5,3.2c-2-0.1-3.1-1.3-3-3.1C36.3,71.9,37.6,70.8,39.8,70.8z"
		/>
	<path class="st15" d="M63.2,35.9c-1.8-0.2-3.2-1-3.3-3c-0.2-2.1,1.1-3.5,3.1-3.7c1.9-0.2,3.1,1.1,3.3,2.9
		C66.5,34.3,65.3,35.5,63.2,35.9z"/>
	<path class="st16" d="M81.9,23.3c2.2,0.4,3.4,1.4,3.3,3.4c-0.1,1.9-1.1,3.3-3.1,3.2c-2.1,0-3.4-1.3-3.3-3.5
		C79,24.3,80.5,23.7,81.9,23.3z"/>
	<path class="st17" d="M133.2,73.9c1.7,0.3,2.9,1.3,2.8,3.2c-0.2,2.2-1.5,3.2-3.7,3c-2.1-0.2-2.9-1.6-2.7-3.5
		C129.8,74.9,131,73.8,133.2,73.9z"/>
	<path class="st18" d="M55.2,35.1c1.9,0.3,3,1.3,3,3.3c0,2-1.2,3.2-3.1,3.2c-2.1,0-3.4-1.3-3.3-3.5C52,36.1,53.3,35.2,55.2,35.1z"/>
	<path class="st19" d="M114.1,114.1c-2.4-0.1-3.7-1.3-3.7-3.3c0-1.8,1.2-3,3.1-3.1c1.9-0.1,3.2,0.9,3.5,2.7
		C117.2,112.6,115.8,113.7,114.1,114.1z"/>
	<path class="st20" d="M95.4,115.6c2,0.2,3.4,1.3,3.4,3.4c-0.1,1.8-1.3,3.1-3.2,3.1c-2.2,0.1-3.4-1.3-3.4-3.3
		C92.2,116.9,93.4,115.8,95.4,115.6z"/>
	<path class="st19" d="M69,28.4c0.4-2,1.6-3.3,3.7-3.1c1.8,0.2,2.9,1.5,2.8,3.4c-0.1,1.9-1.2,3.1-3.1,3.1
		C70.3,31.8,69.2,30.5,69,28.4z"/>
	<path class="st21" d="M136,67c-0.1,2-1.2,3.1-3.1,3.2c-2.2,0.1-3.5-1.3-3.4-3.4c0.1-1.9,1.3-3,3.3-2.9
		C134.9,63.9,135.9,65.1,136,67z"/>
	<path class="st21" d="M130.8,83.5c1.8,0.2,3.1,1,3.2,3.1c0.1,1.9-0.7,3.2-2.8,3.4c-2.3,0.2-3.5-1.1-3.6-3.2
		C127.6,84.9,128.9,84,130.8,83.5z"/>
	<path class="st22" d="M126.8,92.9c1.9,0,3.1,1,3.2,2.9c0.1,2.2-1,3.4-3.2,3.4c-2,0-3.1-1.1-3-3.1C123.8,94.2,124.7,93,126.8,92.9z"
		/>
	<path class="st23" d="M124.2,104.1c-0.1,2.1-1.2,3.1-3.1,3.1c-1.9,0-3.1-1-3.1-3c0-2.2,1.2-3.4,3.4-3.3
		C123.3,101,124.1,102.4,124.2,104.1z"/>
	<path class="st22" d="M105.1,112.7c2.1,0.2,3.1,1.3,3.1,3.2c-0.1,2.2-1.4,3.3-3.5,3.1c-2-0.2-2.8-1.5-2.7-3.4
		C102,113.6,103.3,112.8,105.1,112.7z"/>
</g>
</svg>
