<?xml version="1.0" encoding="utf-8"?>
<!-- Generator: Adobe Illustrator 22.0.1, SVG Export Plug-In . SVG Version: 6.00 Build 0)  -->
<svg version="1.1" id="Layer_1" xmlns="http://www.w3.org/2000/svg" xmlns:xlink="http://www.w3.org/1999/xlink" x="0px" y="0px"
	 viewBox="0 0 40 40" style="enable-background:new 0 0 40 40;" xml:space="preserve">
<style type="text/css">
	.st0{fill:#00783D;}
</style>
<g>
	<path class="st0" d="M0.3,14.1c-0.3-2.4,0.3-4.7,1.6-6.8C3.9,4,6.7,2.3,10.5,2c3.4-0.2,6.3,0.9,8.8,3c0.6,0.5,1.1,0.5,1.6,0
		c1.8-1.5,3.9-2.7,6.2-3c3.1-0.4,6.1,0,8.6,2.2c2.9,2.5,4.1,5.6,4.2,9.4c0.1,4-0.9,7.5-3.2,10.8c-1.8,2.5-4,4.5-6.5,6.3
		c-3.1,2.3-6.4,4.2-9.6,6.3c-0.4,0.3-0.7,0.3-1,0c-3.5-2.3-7.2-4.4-10.5-6.9C5.5,27.4,2.5,24.1,1,19.6C0.4,17.8,0.2,16,0.3,14.1z"/>
</g>
</svg>
