<svg xmlns="http://www.w3.org/2000/svg" xmlns:xlink="http://www.w3.org/1999/xlink" viewBox="3115.656 -6270.344 162.688 162.688">
  <defs>
    <style>
      .cls-1 {
        fill: #fff;
      }

      .cls-2 {
        clip-path: url(#clip-path);
      }

      .cls-3, .cls-4 {
        fill: #00783d;
      }

      .cls-4 {
        opacity: 0.09;
      }
    </style>
    <clipPath id="clip-path">
      <rect id="Rectangle_76" data-name="Rectangle 76" class="cls-1" width="162.688" height="162.688" transform="translate(328 2120)"/>
    </clipPath>
  </defs>
  <g id="Group_894" data-name="Group 894" transform="translate(2800 -8383)">
    <g id="Mask_Group_6" data-name="Mask Group 6" class="cls-2" transform="translate(-12.344 -7.344)">
      <g id="_004-handshake" data-name="004-handshake" transform="translate(328 2142.673)">
        <g id="Group_555" data-name="Group 555" transform="translate(0 7.187)">
          <g id="Group_554" data-name="Group 554">
            <path id="Path_188" data-name="Path 188" class="cls-3" d="M161.757,57.132,131.644,27.018a3.179,3.179,0,1,0-4.5,4.5l27.866,27.865L138.722,75.671a1.281,1.281,0,0,1-1.81,0L104.74,43.5a1.281,1.281,0,0,1,0-1.81l10.934-10.935a3.179,3.179,0,1,0-4.5-4.5L100.245,37.194a7.646,7.646,0,0,0-1.621,8.392l-3.7,3.7H69.071l-4.665-4.665a7.674,7.674,0,0,0,.274-2.031,7.587,7.587,0,0,0-2.237-5.4L51.8,26.549a3.179,3.179,0,0,0-4.5,4.5L57.948,41.683a1.279,1.279,0,0,1,0,1.81l-.885.885-31.3,31.289c-.01.01-.019.021-.029.031a1.276,1.276,0,0,1-1.771-.034L7.674,59.373l28.24-28.24a3.179,3.179,0,0,0-4.5-4.5L.931,57.125a3.179,3.179,0,0,0,0,4.5L19.47,80.161a7.618,7.618,0,0,0,8.047,1.754L37.953,92.351a10.858,10.858,0,0,0,9.593,15.956h.04v0A10.876,10.876,0,0,0,58.41,119.171s0,.009,0,.014a10.859,10.859,0,0,0,15.966,9.588l3.885,3.885a9.644,9.644,0,0,0,16.454-6.409,9.815,9.815,0,0,0,9.33-9.941c0-.006,0-.011,0-.017a10.686,10.686,0,0,0,10.009-10.681,10.391,10.391,0,0,0,8.97-15.057l10.425-9.533a7.634,7.634,0,0,0,9.769-.855l18.54-18.54A3.178,3.178,0,0,0,161.757,57.132ZM47.547,101.95a4.507,4.507,0,1,1,4.507-4.507A4.512,4.512,0,0,1,47.547,101.95Zm14.261,9.355q-.194.184-.379.377a4.527,4.527,0,1,1,.379-.377Zm10.7,11.018c-.015.014-.03.026-.044.04s-.029.033-.044.049a4.5,4.5,0,0,1-6.5-6.223q.194-.184.379-.377a4.5,4.5,0,0,1,6.209,6.511ZM116.6,98.079a4.029,4.029,0,0,1-5.7,0l-6.6-6.6a3.179,3.179,0,0,0-4.5,4.5l6.6,6.6h0l.02.02a4.312,4.312,0,0,1-6.014,6.181l-6.359-6.019a3.179,3.179,0,0,0-4.371,4.617l6.923,6.554a3.466,3.466,0,1,1-4.833,4.968l-3.21-3.21a3.179,3.179,0,1,0-4.5,4.495l3.336,3.336a3.286,3.286,0,1,1-4.647,4.647l-3.888-3.888a10.858,10.858,0,0,0-9.554-15.953s0-.009,0-.014A10.877,10.877,0,0,0,58.45,97.445h-.04v0a10.859,10.859,0,0,0-15.964-9.589L32.512,77.92l28.1-28.1,4.893,4.893a3.179,3.179,0,0,0,2.247.931h4.114L59.322,68.189A10.157,10.157,0,0,0,73.686,82.553L84.328,71.911l11.65.128,20.6,20.326a4.028,4.028,0,0,1,.019,5.715Zm2.3-12.361L99.529,66.611h0l-.028-.028a3.17,3.17,0,0,0-2.606-.892L83.06,65.539a3.187,3.187,0,0,0-2.282.931L69.19,78.057a3.8,3.8,0,0,1-5.373-5.373L80.859,55.642H96.243a3.178,3.178,0,0,0,2.247-.931l4.235-4.235,26.131,26.131Z" transform="translate(0 -25.329)"/>
          </g>
        </g>
        <g id="Group_557" data-name="Group 557" transform="translate(136.109 39.529)">
          <g id="Group_556" data-name="Group 556">
            <circle id="Ellipse_86" data-name="Ellipse 86" class="cls-3" cx="3.172" cy="3.172" r="3.172"/>
          </g>
        </g>
        <g id="Group_559" data-name="Group 559" transform="translate(19.91 39.847)">
          <g id="Group_558" data-name="Group 558">
            <circle id="Ellipse_87" data-name="Ellipse 87" class="cls-3" cx="3.172" cy="3.172" r="3.172"/>
          </g>
        </g>
        <g id="Group_561" data-name="Group 561" transform="translate(38.473 0.255)">
          <g id="Group_560" data-name="Group 560">
            <circle id="Ellipse_88" data-name="Ellipse 88" class="cls-3" cx="3.172" cy="3.172" r="3.172"/>
          </g>
        </g>
        <g id="Group_563" data-name="Group 563" transform="translate(117.814 0)">
          <g id="Group_562" data-name="Group 562">
            <circle id="Ellipse_89" data-name="Ellipse 89" class="cls-3" cx="3.172" cy="3.172" r="3.172"/>
          </g>
        </g>
      </g>
    </g>
    <circle id="Ellipse_109" data-name="Ellipse 109" class="cls-4" cx="69" cy="69" r="69" transform="translate(326 2125)"/>
  </g>
</svg>
