<svg xmlns="http://www.w3.org/2000/svg" xmlns:xlink="http://www.w3.org/1999/xlink" viewBox="2000 -6263 138 138">
  <defs>
    <style>
      .cls-1 {
        fill: #fff;
      }

      .cls-2 {
        clip-path: url(#clip-path);
      }

      .cls-3, .cls-4 {
        fill: #00783d;
      }

      .cls-4 {
        opacity: 0.09;
      }
    </style>
    <clipPath id="clip-path">
      <rect id="Rectangle_76" data-name="Rectangle 76" class="cls-1" width="138" height="138" transform="translate(328 2120)"/>
    </clipPath>
  </defs>
  <g id="Mask_Group_4" data-name="Mask Group 4" class="cls-2" transform="translate(1672 -8383)">
    <g id="_007-care" data-name="007-care" transform="translate(328 2120)">
      <g id="Group_507" data-name="Group 507">
        <g id="Group_506" data-name="Group 506">
          <path id="Path_168" data-name="Path 168" class="cls-3" d="M82.356,110.7H71.9a2.7,2.7,0,1,0,0,5.39H82.356a2.927,2.927,0,1,1,0,5.854H54.205a14.161,14.161,0,0,1-10.917-5.119l-6.732-8.092a19.528,19.528,0,0,0-14.495-7.046V85.768h9.923a18.7,18.7,0,0,1,13.047,5.27l14.53,14.025a2.648,2.648,0,0,1-3.628,3.857L44.526,98.463a2.695,2.695,0,0,0-3.642,3.973l11.407,10.457a8.038,8.038,0,0,0,11.014-11.708L48.775,87.16a24.059,24.059,0,0,0-16.791-6.782H21.538a6.691,6.691,0,0,0-6.157-4.089H2.7a2.7,2.7,0,0,0-2.7,2.7V98.692a2.7,2.7,0,1,0,5.39,0V81.679h9.991a1.292,1.292,0,0,1,1.29,1.29v21.6a1.292,1.292,0,0,1-1.29,1.29h-2.8a2.7,2.7,0,1,0,0,5.39h2.8a6.689,6.689,0,0,0,6.2-4.186,14.16,14.16,0,0,1,10.836,5.117l6.732,8.092a19.536,19.536,0,0,0,15.061,7.062H82.356a8.317,8.317,0,0,0,0-16.634Z"/>
        </g>
      </g>
      <g id="Group_509" data-name="Group 509">
        <g id="Group_508" data-name="Group 508">
          <path id="Path_169" data-name="Path 169" class="cls-3" d="M135.3,35.56a2.7,2.7,0,0,0-2.7,2.7V56.321h-9.991a1.292,1.292,0,0,1-1.29-1.29v-21.6a1.292,1.292,0,0,1,1.29-1.29h2.6a2.7,2.7,0,0,0,0-5.39h-2.6a6.689,6.689,0,0,0-6.2,4.186,14.16,14.16,0,0,1-10.836-5.117l-6.732-8.092a19.536,19.536,0,0,0-15.061-7.062H55.644a8.317,8.317,0,1,0,0,16.633H67.155a2.7,2.7,0,0,0,0-5.39H55.644a2.927,2.927,0,1,1,0-5.854H83.794a14.161,14.161,0,0,1,10.917,5.119l6.732,8.092a19.528,19.528,0,0,0,14.495,7.046v15.92h-9.923a18.7,18.7,0,0,1-13.047-5.27L78.438,32.937a2.648,2.648,0,0,1,3.628-3.857L93.474,39.537a2.695,2.695,0,1,0,3.642-3.973L85.708,25.107A8.038,8.038,0,0,0,74.695,36.815L89.224,50.84a24.059,24.059,0,0,0,16.791,6.782h10.446a6.691,6.691,0,0,0,6.157,4.089H135.3a2.7,2.7,0,0,0,2.7-2.7V38.255A2.7,2.7,0,0,0,135.3,35.56Z"/>
        </g>
      </g>
      <g id="Group_511" data-name="Group 511">
        <g id="Group_510" data-name="Group 510">
          <path id="Path_170" data-name="Path 170" class="cls-3" d="M87.015,102.325a2.722,2.722,0,1,0-1.409,3.593l.058-.026A2.7,2.7,0,0,0,87.015,102.325Z"/>
        </g>
      </g>
      <g id="Group_513" data-name="Group 513">
        <g id="Group_512" data-name="Group 512">
          <path id="Path_171" data-name="Path 171" class="cls-3" d="M93.714,97.788a2.7,2.7,0,1,0-.589,3.78l.034-.025A2.683,2.683,0,0,0,93.714,97.788Z"/>
        </g>
      </g>
      <g id="Group_515" data-name="Group 515">
        <g id="Group_514" data-name="Group 514">
          <path id="Path_172" data-name="Path 172" class="cls-3" d="M79.48,105.351a2.719,2.719,0,1,0-2.154,3.21l.08-.016A2.692,2.692,0,0,0,79.48,105.351Z"/>
        </g>
      </g>
      <g id="Group_517" data-name="Group 517">
        <g id="Group_516" data-name="Group 516">
          <path id="Path_173" data-name="Path 173" class="cls-3" d="M99.344,91.926a2.7,2.7,0,0,0-3.806.2l-.057.065a2.7,2.7,0,1,0,3.863-.261ZM97.839,94.2l-.3-.271.325.293Z"/>
        </g>
      </g>
      <g id="Group_519" data-name="Group 519">
        <g id="Group_518" data-name="Group 518">
          <path id="Path_174" data-name="Path 174" class="cls-3" d="M106.2,77.321a2.707,2.707,0,1,0,1.788,3.39l.011-.037A2.688,2.688,0,0,0,106.2,77.321Z"/>
        </g>
      </g>
      <g id="Group_521" data-name="Group 521">
        <g id="Group_520" data-name="Group 520">
          <path id="Path_175" data-name="Path 175" class="cls-3" d="M109.655,63.412c-.006-.034-.012-.068-.02-.1a2.715,2.715,0,1,0,.02.1Z"/>
        </g>
      </g>
      <g id="Group_523" data-name="Group 523">
        <g id="Group_522" data-name="Group 522">
          <path id="Path_176" data-name="Path 176" class="cls-3" d="M107.184,69.259a2.7,2.7,0,0,0-2.921,2.448c0,.026-.006.079-.008.105a2.7,2.7,0,0,0,2.532,2.849c.054,0,.107,0,.161,0a2.709,2.709,0,0,0,.236-5.407Z"/>
        </g>
      </g>
      <g id="Group_525" data-name="Group 525">
        <g id="Group_524" data-name="Group 524">
          <path id="Path_177" data-name="Path 177" class="cls-3" d="M103.565,84.99a2.7,2.7,0,0,0-3.673,1.016l-.037.067a2.7,2.7,0,0,0,2.368,3.995,2.673,2.673,0,0,0,2.357-1.4l-2.343-1.332,2.345,1.329A2.7,2.7,0,0,0,103.565,84.99Z"/>
        </g>
      </g>
      <g id="Group_527" data-name="Group 527">
        <g id="Group_526" data-name="Group 526">
          <path id="Path_178" data-name="Path 178" class="cls-3" d="M54.686,33.664a2.694,2.694,0,0,0-3.615-1.205l-.024.012a2.7,2.7,0,1,0,3.639,1.193Z"/>
        </g>
      </g>
      <g id="Group_529" data-name="Group 529">
        <g id="Group_528" data-name="Group 528">
          <path id="Path_179" data-name="Path 179" class="cls-3" d="M62.483,31.417a2.694,2.694,0,0,0-3.254-1.984l-.063.016a2.7,2.7,0,1,0,3.317,1.968Z"/>
        </g>
      </g>
      <g id="Group_531" data-name="Group 531">
        <g id="Group_530" data-name="Group 530">
          <path id="Path_180" data-name="Path 180" class="cls-3" d="M47.56,37.551a2.7,2.7,0,0,0-3.789-.41l1.671,2.114-1.679-2.108a2.7,2.7,0,0,0,3.358,4.217l.036-.029A2.692,2.692,0,0,0,47.56,37.551Z"/>
        </g>
      </g>
      <g id="Group_533" data-name="Group 533">
        <g id="Group_532" data-name="Group 532">
          <path id="Path_181" data-name="Path 181" class="cls-3" d="M33.191,56.726a2.7,2.7,0,0,0-3.309,1.891c-.007.025-.02.075-.026.1a2.7,2.7,0,1,0,3.335-1.991Z"/>
        </g>
      </g>
      <g id="Group_535" data-name="Group 535">
        <g id="Group_534" data-name="Group 534">
          <path id="Path_182" data-name="Path 182" class="cls-3" d="M31.474,64.644a2.7,2.7,0,0,0-2.847,2.535c0,.035,0,.069,0,.1a2.693,2.693,0,0,0,2.614,2.771h.082a2.708,2.708,0,0,0,.156-5.41Z"/>
        </g>
      </g>
      <g id="Group_537" data-name="Group 537">
        <g id="Group_536" data-name="Group 536">
          <path id="Path_183" data-name="Path 183" class="cls-3" d="M36.583,49.361A2.7,2.7,0,0,0,32.944,50.5l-.044.087a2.7,2.7,0,1,0,3.682-1.221Z"/>
        </g>
      </g>
      <g id="Group_539" data-name="Group 539">
        <g id="Group_538" data-name="Group 538">
          <path id="Path_184" data-name="Path 184" class="cls-3" d="M41.45,42.877a2.7,2.7,0,0,0-3.795.352L37.6,43.3a2.7,2.7,0,1,0,3.851-.42Z"/>
        </g>
      </g>
      <g id="Group_541" data-name="Group 541">
        <g id="Group_540" data-name="Group 540">
          <path id="Path_185" data-name="Path 185" class="cls-3" d="M34.52,74.937a2.7,2.7,0,0,0-5.306.95l0,.026a2.68,2.68,0,0,0,2.642,2.207,2.734,2.734,0,0,0,.483-.043A2.706,2.706,0,0,0,34.52,74.937Z"/>
        </g>
      </g>
      <g id="Group_543" data-name="Group 543">
        <g id="Group_542" data-name="Group 542">
          <path id="Path_186" data-name="Path 186" class="cls-3" d="M78.253,54.479a12.481,12.481,0,0,0-9.074,3.888A12.517,12.517,0,1,0,52.1,76.609l.053.043L67.506,88.811a2.7,2.7,0,0,0,3.352-.005L86.867,76.054a2.669,2.669,0,0,0,.224-.2,12.515,12.515,0,0,0-8.837-21.376ZM83.382,71.94,69.174,83.257,55.523,72.449A7.125,7.125,0,1,1,66.689,64.27a2.695,2.695,0,0,0,4.979,0,7.125,7.125,0,1,1,11.713,7.67Z"/>
        </g>
      </g>
      <g id="Group_545" data-name="Group 545">
        <g id="Group_544" data-name="Group 544">
          <circle id="Ellipse_82" data-name="Ellipse 82" class="cls-3" cx="2.686" cy="2.686" r="2.686" transform="translate(0.009 105.871)"/>
        </g>
      </g>
      <g id="Group_547" data-name="Group 547">
        <g id="Group_546" data-name="Group 546">
          <circle id="Ellipse_83" data-name="Ellipse 83" class="cls-3" cx="2.686" cy="2.686" r="2.686" transform="translate(132.619 26.758)"/>
        </g>
      </g>
    </g>
    <path id="Path_277" data-name="Path 277" class="cls-4" d="M69,0A69,69,0,1,1,0,69,69,69,0,0,1,69,0Z" transform="translate(328 2120)"/>
  </g>
</svg>
