<svg xmlns="http://www.w3.org/2000/svg" xmlns:xlink="http://www.w3.org/1999/xlink" viewBox="3128 -6827 138 138">
  <defs>
    <style>
      .cls-1 {
        fill: #fff;
      }

      .cls-2 {
        clip-path: url(#clip-path);
      }

      .cls-3, .cls-4 {
        fill: #00783d;
      }

      .cls-4 {
        opacity: 0.09;
      }
    </style>
    <clipPath id="clip-path">
      <rect id="Rectangle_76" data-name="Rectangle 76" class="cls-1" width="138" height="138" transform="translate(328 2120)"/>
    </clipPath>
  </defs>
  <g id="Group_892" data-name="Group 892" transform="translate(2800 -8947)">
    <g id="Mask_Group_3" data-name="Mask Group 3" class="cls-2">
      <g id="paper" transform="translate(327.999 2120)">
        <g id="Group_505" data-name="Group 505">
          <path id="Path_167" data-name="Path 167" class="cls-3" d="M133.507,30.651l-23.944-4.938,1.725-10.929a2.028,2.028,0,0,0-1.686-2.319L30.8.025A2.028,2.028,0,0,0,28.48,1.711L25.869,18.247H4.9a2.028,2.028,0,0,0-2.027,2.027V41.767a2.027,2.027,0,1,0,4.055,0V22.3H82.655V88.365a2.027,2.027,0,0,0,4.055,0V20.275a2.027,2.027,0,0,0-2.027-2.027H29.974l2.194-13.9,74.8,11.808L90.439,120.847l-3.73-.589V96.475a2.027,2.027,0,1,0-4.055,0v31.816H53.672l-6.93-24.354a2.028,2.028,0,0,0-2.24-1.452L6.93,107.908V49.877a2.027,2.027,0,1,0-4.055,0v60.372c0,.013,0,.026,0,.039,0,.045.006.089.01.133.005.061.011.122.022.182.008.044.019.087.029.13.014.058.03.116.05.173s.03.083.048.123c.023.056.049.109.077.162s.041.077.064.114.066.1.1.149.051.069.079.1.084.092.129.135.058.059.089.087a2.037,2.037,0,0,0,.165.125c.029.02.056.043.087.063a2.018,2.018,0,0,0,.283.149l47.239,20.069a1.974,1.974,0,0,0,.192.07c.042.013.085.022.127.032.023.006.046.013.07.018.05.01.1.016.149.023l.051.008q.1.01.2.01H84.16l27.218,5.613a2.028,2.028,0,0,0,2.4-1.577l16.1-78.05a2.027,2.027,0,0,0-3.971-.819l-15.686,76.064-23.5-4.846v-4.368l5.1.805a2,2,0,0,0,.283.022l.033,0,.027,0a1.981,1.981,0,0,0,.277-.022l.042-.008a1.985,1.985,0,0,0,.249-.06l.043-.013a2.057,2.057,0,0,0,.257-.106l.053-.027a1.994,1.994,0,0,0,1.055-1.474l14.8-93.759,21.772,4.49-3.146,15.255a2.027,2.027,0,1,0,3.971.819l3.555-17.24A2.029,2.029,0,0,0,133.507,30.651ZM29.241,118.387l-16.87-7.167,30.956-4.468,5.7,20.042Z"/>
        </g>
      </g>
    </g>
    <circle id="Ellipse_106" data-name="Ellipse 106" class="cls-4" cx="69" cy="69" r="69" transform="translate(328 2120)"/>
  </g>
</svg>
