<svg xmlns="http://www.w3.org/2000/svg" xmlns:xlink="http://www.w3.org/1999/xlink" viewBox="2563 -6263 139 138">
  <defs>
    <style>
      .cls-1 {
        fill: #fff;
      }

      .cls-2 {
        clip-path: url(#clip-path);
      }

      .cls-3, .cls-4 {
        fill: #00783d;
      }

      .cls-4 {
        opacity: 0.09;
      }
    </style>
    <clipPath id="clip-path">
      <rect id="Rectangle_76" data-name="Rectangle 76" class="cls-1" width="138" height="138" transform="translate(328 2120)"/>
    </clipPath>
  </defs>
  <g id="Group_893" data-name="Group 893" transform="translate(2236 -8383)">
    <g id="Mask_Group_5" data-name="Mask Group 5" class="cls-2">
      <g id="_008-team" data-name="008-team" transform="translate(328 2120)">
        <g id="Group_549" data-name="Group 549">
          <g id="Group_548" data-name="Group 548">
            <circle id="Ellipse_84" data-name="Ellipse 84" class="cls-3" cx="2.695" cy="2.695" r="2.695" transform="translate(116.34 88.433)"/>
          </g>
        </g>
        <g id="Group_551" data-name="Group 551">
          <g id="Group_550" data-name="Group 550">
            <circle id="Ellipse_85" data-name="Ellipse 85" class="cls-3" cx="2.695" cy="2.695" r="2.695" transform="translate(13.737 88.433)"/>
          </g>
        </g>
        <g id="Group_553" data-name="Group 553">
          <g id="Group_552" data-name="Group 552">
            <path id="Path_187" data-name="Path 187" class="cls-3" d="M133.229,132.608H110.082l-.142-66.243a2.7,2.7,0,0,0-2.7-2.69h-.006a2.7,2.7,0,0,0-2.69,2.7l.142,66.232h-7.83l-.069-29.473a2.7,2.7,0,0,0-2.7-2.689H94.09a2.7,2.7,0,0,0-2.689,2.7l.069,29.46H84.924V96.933a14.789,14.789,0,0,0,13.63-14.559V56.25a29.261,29.261,0,0,0-2.567-11.986,22.315,22.315,0,0,1,14.091,6.2,20.9,20.9,0,0,1,6.488,15.086l.049,15.341a2.7,2.7,0,0,0,2.7,2.687h.009a2.7,2.7,0,0,0,2.687-2.7l-.049-15.338a26.243,26.243,0,0,0-8.134-18.95,27.553,27.553,0,0,0-10.4-6.318A14.253,14.253,0,0,0,93.6,15.68h-.031a14.309,14.309,0,0,0-6.577,1.62,2.7,2.7,0,1,0,2.5,4.777,8.772,8.772,0,0,1,4.088-1.005,8.872,8.872,0,1,1,.038,17.744,2.688,2.688,0,0,0-.341.025c-.144.006-.287.011-.431.019A30.678,30.678,0,0,0,77.254,27.7a15.814,15.814,0,1,0-20.342.413A30.65,30.65,0,0,0,42.548,38.844c-.427-.019-.853-.03-1.278-.03-.2,0-.4,0-.6.008-.049,0-.1-.008-.148-.008a8.872,8.872,0,1,1,4.23-16.673A2.7,2.7,0,0,0,47.324,17.4,14.258,14.258,0,0,0,31.154,40.687,26.851,26.851,0,0,0,13.736,65.6V80.884a2.7,2.7,0,1,0,5.392,0V65.6c0-11.18,8.926-20.378,20.254-21.308A29.261,29.261,0,0,0,36.825,56.25V82.374A14.8,14.8,0,0,0,50.91,96.967v35.641H43.565V103.141a2.7,2.7,0,1,0-5.392,0v29.467H31.547V66.4a2.7,2.7,0,1,0-5.392,0v66.21H4.771a2.7,2.7,0,0,0,0,5.392H133.229a2.7,2.7,0,1,0,0-5.392ZM56.415,15.815A10.423,10.423,0,1,1,66.838,26.238,10.435,10.435,0,0,1,56.415,15.815ZM82.228,54.463a2.7,2.7,0,0,0-2.7,2.7v75.449h-9.6V95.1a2.7,2.7,0,1,0-5.392,0v37.5H56.3V57.159a2.7,2.7,0,1,0-5.392,0v34.4a9.391,9.391,0,0,1-8.693-9.188V56.25a23.942,23.942,0,0,1,3.924-13.133,25.954,25.954,0,0,1,43.117.03,23.944,23.944,0,0,1,3.9,13.1V82.374a9.37,9.37,0,0,1-8.238,9.136V57.159A2.7,2.7,0,0,0,82.228,54.463Z"/>
          </g>
        </g>
      </g>
    </g>
    <circle id="Ellipse_108" data-name="Ellipse 108" class="cls-4" cx="69" cy="69" r="69" transform="translate(327 2120)"/>
  </g>
</svg>
