<svg xmlns="http://www.w3.org/2000/svg" xmlns:xlink="http://www.w3.org/1999/xlink" viewBox="2000 -6827 147 138">
  <defs>
    <style>
      .cls-1 {
        fill: #fff;
      }

      .cls-2, .cls-4 {
        fill: #00783d;
      }

      .cls-2 {
        opacity: 0.09;
      }

      .cls-3 {
        clip-path: url(#clip-path);
      }
    </style>
    <clipPath id="clip-path">
      <rect id="Rectangle_76" data-name="Rectangle 76" class="cls-1" width="138" height="138" transform="translate(328 2120)"/>
    </clipPath>
  </defs>
  <g id="Group_890" data-name="Group 890" transform="translate(1672 -8947)">
    <circle id="Ellipse_104" data-name="Ellipse 104" class="cls-2" cx="69" cy="69" r="69" transform="translate(337 2120)"/>
    <g id="Mask_Group_1" data-name="Mask Group 1" class="cls-3">
      <g id="_001-hand-gesture" data-name="001-hand-gesture" transform="translate(328 2120)">
        <g id="Group_484" data-name="Group 484">
          <g id="Group_483" data-name="Group 483">
            <path id="Path_162" data-name="Path 162" class="cls-4" d="M116.569,49.762,103.107,36.3V15.171a2.34,2.34,0,0,0-2.34-2.34H88.055a2.34,2.34,0,0,0-2.34,2.34v3.737L77.9,11.092a2.34,2.34,0,0,0-3.309,0l-38.67,38.67a2.34,2.34,0,0,0,3.309,3.309l7.332-7.332V59.1a2.34,2.34,0,1,0,4.68,0V41.06l25-25L86.4,26.208,101.249,41.06V68.706a2.34,2.34,0,0,0,4.68,0V45.739l7.331,7.331a2.34,2.34,0,1,0,3.309-3.309ZM98.428,31.62l-8.033-8.033V17.511h8.033Z"/>
          </g>
        </g>
        <g id="Group_486" data-name="Group 486">
          <g id="Group_485" data-name="Group 485">
            <path id="Path_163" data-name="Path 163" class="cls-4" d="M85.175,48.248H67.316a2.34,2.34,0,0,0-2.34,2.34V63.066a2.34,2.34,0,0,0,4.68,0V52.928H82.835V65.874a2.34,2.34,0,0,0,4.68,0V50.588A2.34,2.34,0,0,0,85.175,48.248Z"/>
          </g>
        </g>
        <g id="Group_488" data-name="Group 488">
          <g id="Group_487" data-name="Group 487">
            <path id="Path_164" data-name="Path 164" class="cls-4" d="M136.313,83.652a10.735,10.735,0,0,0-13.4-4.02,10.711,10.711,0,0,0-19.528-2.946L90.775,97.354l-.088.049a9.992,9.992,0,0,1-6.475,1.1L53.346,93.277a4.186,4.186,0,0,1-3.453-4.484,4.166,4.166,0,0,1,4.817-3.736l26.8,4.355a9.523,9.523,0,0,0,10.711-7.067,9.258,9.258,0,0,0-7.166-11.308l-42.78-8.576a29.558,29.558,0,0,0-5.253-.57A22.939,22.939,0,0,0,17.447,72.507,51.593,51.593,0,0,1,1.113,88.563a2.34,2.34,0,1,0,2.452,3.986A56.3,56.3,0,0,0,21.39,75.028a18.252,18.252,0,0,1,15.229-8.461l.314,0a24.874,24.874,0,0,1,4.419.479l42.78,8.576a4.579,4.579,0,0,1,3.545,5.593,4.82,4.82,0,0,1-5.418,3.575l-26.8-4.355a8.846,8.846,0,0,0-2.9,17.452l30.865,5.228a14.685,14.685,0,0,0,9.521-1.621l31.409-17.365A6.035,6.035,0,0,1,130.5,94.517L89.913,120.17a17.739,17.739,0,0,1-12.125,2.544l-24.256-3.665a2.34,2.34,0,0,0-.7,4.627l24.256,3.665a22.418,22.418,0,0,0,15.324-3.215L133,98.473a10.713,10.713,0,0,0,3.308-14.82ZM99.049,92.78l8.333-13.656a6.033,6.033,0,0,1,11.178,2.869Z"/>
          </g>
        </g>
        <g id="Group_490" data-name="Group 490">
          <g id="Group_489" data-name="Group 489">
            <path id="Path_165" data-name="Path 165" class="cls-4" d="M45.615,117.853l-15.77-2.382a12.433,12.433,0,0,0-8.7,1.909l-4.047,2.661a2.34,2.34,0,1,0,2.571,3.91l4.047-2.661a7.761,7.761,0,0,1,5.434-1.192l15.77,2.382a2.34,2.34,0,0,0,.7-4.628Z"/>
          </g>
        </g>
      </g>
    </g>
  </g>
</svg>
