<svg id="Lag_1" data-name="Lag 1" xmlns="http://www.w3.org/2000/svg" viewBox="0 0 2710.68 517.91"><defs><style>.cls-1{fill:#fff;}</style></defs><title>logo-white</title><path class="cls-1" d="M408.74,349.59l-.65.08c-.18-.61-.4-1.21-.55-1.82-3.32-14.24-6.14-28.61-10-42.68-10-36.23-20.58-72.33-30.86-108.5-.45-1.59-1.21-1.84-2.63-1.84-14.89,0-29.77,0-44.66,0H317c.21.81.33,1.37.5,1.91q4.71,14.69,9.42,29.37,26.44,82.1,52.84,164.2c.63,1.94,1.41,2.57,3.49,2.57,44.06-.07,88.12,0,132.19-.12,9.11,0,18.25-.42,27.31-1.33a79.64,79.64,0,0,0,33.16-10.52c15.58-9.21,24.75-22.69,26.7-40.83a108.73,108.73,0,0,0-.6-25.56c-1.35-10.48-5.46-19.64-13.7-26.63-6.72-5.7-14.57-9.33-22.72-12.44-7.07-2.71-14.2-5.36-20.29-10-11-8.47-9-24.06,3.78-29.48a42.53,42.53,0,0,1,16.36-3.11c8.92-.08,17.83,0,26.75,0h2.66V194.77c-.59,0-1.17-.13-1.75-.13-11.34,0-22.69-.16-34,0a90.16,90.16,0,0,0-28.6,4.68c-14.18,5-25.16,13.64-31.28,27.67-5.42,12.42-6,25.36-3.59,38.51a47.39,47.39,0,0,0,15.18,27c8.43,7.66,18.45,12.49,29,16.31,5.74,2.07,11.46,4.21,16.38,8,2.76,2.12,5.17,4.73,5.56,8.2a64.86,64.86,0,0,1,.37,14.26c-.75,6.67-5.57,10.45-11.35,13-8.09,3.59-16.71,4.52-25.44,4.53q-38.79.08-77.59,0H445L499.8,195c-.71-.06-1.14-.13-1.57-.13-14.81,0-29.62,0-44.43,0-1.53,0-2,.64-2.34,1.92q-9.19,30.94-18.47,61.85c-7.83,26.1-15.6,52.22-21.54,78.84Q410.1,343.51,408.74,349.59ZM274,355V194.22H229.15V392.71H352.88V355Zm204.84-9A17,17,0,0,0,496,329a17.15,17.15,0,1,0-34.3,0A17,17,0,0,0,478.81,346Zm58.7-16.17a16.9,16.9,0,1,0-17.15,16.93A16.78,16.78,0,0,0,537.51,329.86Z"/><path class="cls-1" d="M38,251.91c.29-2.24.64-4.47.86-6.71A152.13,152.13,0,0,1,54.14,193c13.63-27.66,33.45-50.27,57.27-69.54,25.52-20.64,54-36.08,84.4-48.27,30-12,61-20.51,92.7-26.61q29.6-5.68,59.59-8.64c12.23-1.21,24.49-2.27,36.77-2.74,16-.61,32.1-1,48.13-.68s31.76,1.45,47.59,2.83c13.48,1.17,26.88,3.21,40.31,4.86.57.07,1.14.08,2.06.14-1.79-10.23-3.54-20.25-5.29-30.27,10.93,11.08,20.66,23.23,32.84,32.88s24.63,18.94,37.2,28.58L585,76.73c-12.44,5.51-24.91,11-37.31,16.55-13.59,6.14-25.57,14.81-37.17,24a5.22,5.22,0,0,1-2.11,1.14l11.47-33.71c-3.44-.3-6.64-.62-9.84-.85-16.16-1.11-32.31-2.32-48.47-3.27a285.87,285.87,0,0,0-47,.71q-29.62,3.16-59.13,7.35A622.37,622.37,0,0,0,281,104.17c-30.18,8.13-59.53,18.51-87.42,32.76C168,150,144.46,165.88,124.33,186.48c-26,26.62-43.06,58-49.57,94.76-2.41,13.67-3.57,27.46-2.28,41.34,1.45,15.71,5.19,30.77,14.18,44.05,6,8.83,14,15.74,22.25,22.27,21.21,16.73,44.9,29.12,69.71,39.5,31.8,13.3,64.8,22.54,98.67,28.8a583.56,583.56,0,0,0,62.35,8q30.11,2.26,60.27,1.52a636.65,636.65,0,0,0,64.71-4.78c41.82-5.32,82.63-14.79,121.82-30.55,37.25-15,71.58-34.82,101.55-61.77,22.15-19.93,40.85-42.59,54-69.52,6.17-12.63,11.09-25.75,12.49-39.79a154,154,0,0,0,.11-24.68,141,141,0,0,0-9.12-41.89A128.44,128.44,0,0,0,722,154.78a16.24,16.24,0,0,1-1.38-1.72c-1.15-1.78-2.25-3.58-3.37-5.37l.54-.51c2.49,2.65,4.95,5.31,7.46,7.93,19.41,20.29,36.11,42.51,48.52,67.81,8,16.22,13.71,33.14,16.07,51.12,2,15.41.38,30.54-3.65,45.46-7.64,28.29-22.17,52.79-41.4,74.63-22.27,25.31-49,44.85-78.64,60.65-31.06,16.58-64,28.24-98.08,36.71a538.87,538.87,0,0,1-70.5,12.82c-16.3,1.8-32.67,3.1-49,4.44-6.81.56-13.67.64-20.51,1a12.69,12.69,0,0,0-1.89.39H378.88a14,14,0,0,0-2.09-.4,450.82,450.82,0,0,1-48.54-4.62,419.85,419.85,0,0,1-77.64-19c-57.21-20.11-107.41-51.2-149-95.67-20.18-21.6-37.2-45.41-49.58-72.37C46,304.91,41.3,291.34,39.24,277c-.46-3.18-.83-6.38-1.23-9.56Q38,259.65,38,251.91Z"/><path class="cls-1" d="M408.74,349.59q1.36-6.07,2.71-12.16c5.94-26.62,13.71-52.74,21.54-78.84q9.28-30.9,18.47-61.85c.38-1.28.81-1.93,2.34-1.92,14.81.06,29.62,0,44.43,0,.43,0,.86.07,1.57.13L445,356.89h2.71q38.79,0,77.59,0c8.73,0,17.35-.94,25.44-4.53,5.78-2.57,10.6-6.35,11.35-13a64.86,64.86,0,0,0-.37-14.26c-.39-3.47-2.8-6.08-5.56-8.2-4.92-3.78-10.64-5.92-16.38-8-10.6-3.82-20.62-8.65-29-16.31a47.39,47.39,0,0,1-15.18-27c-2.44-13.15-1.83-26.09,3.59-38.51,6.12-14,17.1-22.68,31.28-27.67a90.16,90.16,0,0,1,28.6-4.68c11.35-.2,22.7-.05,34,0,.58,0,1.16.09,1.75.13v38.06h-2.66c-8.92,0-17.83-.06-26.75,0A42.53,42.53,0,0,0,549,236c-12.79,5.42-14.81,21-3.78,29.48,6.09,4.67,13.22,7.32,20.29,10,8.15,3.11,16,6.74,22.72,12.44,8.24,7,12.35,16.15,13.7,26.63a108.73,108.73,0,0,1,.6,25.56c-2,18.14-11.12,31.62-26.7,40.83a79.64,79.64,0,0,1-33.16,10.52c-9.06.91-18.2,1.31-27.31,1.33-44.07.13-88.13.05-132.19.12-2.08,0-2.86-.63-3.49-2.57q-26.36-82.12-52.84-164.2-4.72-14.69-9.42-29.37c-.17-.54-.29-1.1-.5-1.91h2.39c14.89,0,29.77,0,44.66,0,1.42,0,2.18.25,2.63,1.84,10.28,36.17,20.82,72.27,30.86,108.5,3.9,14.07,6.72,28.44,10,42.68.15.61.37,1.21.55,1.82Z"/><path class="cls-1" d="M274,355h78.91v37.72H229.15V194.22H274Z"/><path class="cls-1" d="M478.81,346a17,17,0,0,1-17.16-17,17.15,17.15,0,1,1,34.3,0A17,17,0,0,1,478.81,346Z"/><path class="cls-1" d="M537.51,329.86a16.9,16.9,0,1,1-16.85-17A16.77,16.77,0,0,1,537.51,329.86Z"/><path class="cls-1" d="M878,223.12V53.28h33.15V193.54h77v29.58Z"/><path class="cls-1" d="M1076.42,223.12V212.38c-8.35,8.35-16.22,11.93-30.54,11.93-14.07,0-24.33-3.58-31.72-11-6.68-6.92-10.26-16.94-10.26-27.91,0-19.8,13.6-36,42.46-36h29.34v-6.2c0-13.6-6.68-19.56-23.14-19.56-11.92,0-17.41,2.86-23.85,10.26l-19.8-19.32c12.17-13.36,24.09-17.18,44.85-17.18,34.82,0,53,14.79,53,43.89v81.82Zm-.72-52.48h-24.57c-11.21,0-17.41,5.25-17.41,14.08,0,8.58,5.72,14.31,17.89,14.31,8.59,0,14.07-.72,19.56-6,3.34-3.1,4.53-8.11,4.53-15.74Z"/><path class="cls-1" d="M1212.38,223.12V148c0-16.93-10.73-22.66-20.51-22.66s-20.76,5.73-20.76,22.66v75.14h-31V98.84h30.29v11.45c8.11-8.58,19.56-12.88,31-12.88,12.4,0,22.42,4.06,29.34,11,10,10,12.64,21.7,12.64,35.3v79.43Z"/><path class="cls-1" d="M1345.48,223.12V211.43c-8.58,9.54-17.65,13.12-30.77,13.12-12.16,0-23.61-4.29-30.53-11.21-12.4-12.4-12.64-33.87-12.64-52.48s.24-39.83,12.64-52.24c6.92-6.91,18.13-11.21,30.29-11.21,12.65,0,22.19,3.34,30.3,12.41V53.28h31V223.12Zm-21.94-97.8c-18.61,0-21,15.27-21,35.54s2.38,35.78,21,35.78,21.23-15.5,21.23-35.78S1342.14,125.32,1323.54,125.32Z"/><path class="cls-1" d="M1451.39,224.55c-19.56,0-37.21-2.15-53-17.89l20.27-20.28c10.26,10.26,23.62,11.69,33.16,11.69,10.73,0,21.94-3.57,21.94-12.88,0-6.2-3.34-10.49-13.12-11.45l-19.56-1.91c-22.42-2.14-36.25-11.92-36.25-34.82,0-25.76,22.66-39.6,47.94-39.6,19.32,0,35.54,3.34,47.47,14.55l-19.08,19.32c-7.16-6.44-18.13-8.34-28.87-8.34-12.4,0-17.65,5.72-17.65,11.92,0,4.53,1.91,9.78,12.88,10.74l19.56,1.9c24.57,2.39,37,15.51,37,36.5C1504.11,211.43,1480.73,224.55,1451.39,224.55Z"/><path class="cls-1" d="M1564.93,126v97.08h-31V126H1521V102.42h12.88V86.92c0-17.65,11-35.54,36.26-35.54h17.65V77.62h-12.16c-7.4,0-10.74,4-10.74,11.21v13.59h22.9V126Z"/><path class="cls-1" d="M1693.74,209.28c-7.63,8.11-20.27,15.27-38.64,15.27s-30.77-7.16-38.4-15.27c-11.22-11.68-14.08-25.76-14.08-48.42,0-22.42,2.86-36.49,14.08-48.18,7.63-8.11,20-15.27,38.4-15.27s31,7.16,38.64,15.27c11.21,11.69,14.07,25.76,14.07,48.18C1707.81,183.52,1705,197.6,1693.74,209.28Zm-24.09-78.47c-3.58-3.58-8.35-5.49-14.55-5.49s-10.74,1.91-14.31,5.49c-6.44,6.44-7.16,17.17-7.16,30.05s.72,23.86,7.16,30.3c3.57,3.57,8.11,5.48,14.31,5.48s11-1.91,14.55-5.48c6.44-6.44,7.15-17.42,7.15-30.3S1676.09,137.25,1669.65,130.81Z"/><path class="cls-1" d="M1804.9,132.72c-4.77-4.77-8.83-7.4-16.46-7.4-9.54,0-20,7.16-20,22.9v74.9h-31V98.84h30.3v11.93c6-7.15,17.89-13.36,31.24-13.36,12.17,0,20.76,3.1,29.34,11.69Z"/><path class="cls-1" d="M1862.86,170.64c0,16,9.78,27.67,27.19,27.67,13.6,0,20.28-3.81,28.15-11.69L1937,205c-12.64,12.64-24.8,19.56-47.22,19.56-29.34,0-57.49-13.36-57.49-63.69,0-40.55,21.94-63.45,54.15-63.45,34.58,0,54.14,25.29,54.14,59.4v13.83Zm44.37-34.58c-3.34-7.4-10.26-12.89-20.75-12.89s-17.42,5.49-20.76,12.89a34.41,34.41,0,0,0-2.86,13.35h47.23A34.23,34.23,0,0,0,1907.23,136.06Z"/><path class="cls-1" d="M2041.52,223.12V148c0-16.93-10.73-22.66-20.51-22.66s-20.76,5.73-20.76,22.66v75.14h-31V98.84h30.29v11.45c8.11-8.58,19.56-12.88,31-12.88,12.4,0,22.42,4.06,29.34,11,10,10,12.64,21.7,12.64,35.3v79.43Z"/><path class="cls-1" d="M2105.45,77.62V52.33h31.72V77.62Zm.48,145.5V98.84h31V223.12Z"/><path class="cls-1" d="M2243.8,223.12V148c0-16.93-10.74-22.66-20.52-22.66s-20.75,5.73-20.75,22.66v75.14h-31V98.84h30.3v11.45c8.1-8.58,19.55-12.88,31-12.88,12.41,0,22.43,4.06,29.34,11,10,10,12.65,21.7,12.65,35.3v79.43Z"/><path class="cls-1" d="M2351.14,270.11c-19.08,0-32.2-3.82-45.08-16.22l19.32-19.56c6.91,6.68,13.83,9.54,24.33,9.54,18.6,0,25-13.12,25-25.76V205.47c-8.11,9.06-17.41,12.4-29.58,12.4s-22.66-4.05-29.57-11c-11.69-11.69-12.65-27.67-12.65-49.38s1-37.45,12.65-49.13c6.91-6.92,17.65-11,29.81-11,13.12,0,21.71,3.58,30.3,13.12V98.84h30.05V218.59C2405.76,248.4,2384.53,270.11,2351.14,270.11Zm3.1-144.79c-18.37,0-20.28,15.74-20.28,32.2s1.91,32.44,20.28,32.44,20.51-16,20.51-32.44S2372.61,125.32,2354.24,125.32Z"/><path class="cls-1" d="M2464.92,170.64c0,16,9.78,27.67,27.19,27.67,13.6,0,20.28-3.81,28.15-11.69L2539.1,205c-12.64,12.64-24.81,19.56-47.23,19.56-29.34,0-57.48-13.36-57.48-63.69,0-40.55,21.94-63.45,54.14-63.45,34.59,0,54.15,25.29,54.15,59.4v13.83Zm44.36-34.58c-3.33-7.4-10.25-12.89-20.75-12.89s-17.41,5.49-20.75,12.89a34.23,34.23,0,0,0-2.86,13.35h47.23A34.23,34.23,0,0,0,2509.28,136.06Z"/><path class="cls-1" d="M2643.58,223.12V148c0-16.93-10.74-22.66-20.52-22.66s-20.75,5.73-20.75,22.66v75.14h-31V98.84h30.3v11.45c8.1-8.58,19.55-12.88,31-12.88,12.41,0,22.43,4.06,29.34,11,10,10,12.65,21.7,12.65,35.3v79.43Z"/><path class="cls-1" d="M946.18,454.57V443.36C936.64,452.9,928.05,456,912.31,456c-16.22,0-25.77-3.1-33.16-10.73-5.72-5.73-8.83-14.55-8.83-23.86,0-20.51,14.32-33.87,40.55-33.87h35.31V376.33c0-17.17-8.59-25.76-30.06-25.76-15,0-22.66,3.58-29.58,13.36l-11.68-10.74c10.49-13.59,22.42-17.41,41.5-17.41,31.49,0,47,13.6,47,39.12v79.67Zm0-54.15H913.26c-17.65,0-26.24,7.16-26.24,20.75s8.35,20,27,20c10,0,18.84-.71,26.23-7.87,4.06-3.82,6-10.5,6-20.28Z"/><path class="cls-1" d="M1026.08,351.05V454.57h-17.17V351.05h-15V337.93h15V315.74c0-17.41,9.78-31.48,29.82-31.48h12.4v14.79h-9.3c-11,0-15.75,6.44-15.75,17.17v21.71h25.05v13.12Z"/><path class="cls-1" d="M1190.43,454.57h-14.79l-55.81-169.84h19.08L1183,422.13l44.12-137.4h19.09Z"/><path class="cls-1" d="M1343.57,400.42c0,25.76,12.4,40.55,34.82,40.55,13.6,0,21.23-4.05,30.54-13.36l11.92,10.26c-11.92,11.93-23.37,18.13-43.41,18.13-18.37,0-33.16-6.44-41.74-20.27C1325,451,1313,456,1292.76,456c-16.22,0-25.76-3.1-33.15-10.73-5.73-5.73-8.83-14.55-8.83-23.86,0-20.51,14.31-33.87,40.55-33.87h35.3V376.33c0-17.17-8.58-25.76-30.05-25.76-15,0-22.66,3.58-29.58,13.36l-11.69-10.74c10.5-13.59,22.42-17.41,41.51-17.41,21.23,0,34.82,6.2,41.26,18.37,8.11-11.93,20.75-18.37,36.74-18.37,30.29,0,48.18,22,48.18,56.77v7.87Zm-16.94,0h-32.91c-17.66,0-26.24,7.16-26.24,20.75s8.35,20,27,20c10,0,18.85-.71,26.24-7.87,4.06-3.82,6-10.5,6-20.28ZM1402.25,368c-4.53-10.73-15-17.65-27.43-17.65s-22.9,6.92-27.43,17.65c-2.63,6.44-3.34,10-3.82,19.56h62.25C1405.35,378,1404.87,374.42,1402.25,368Z"/><path class="cls-1" d="M1524.85,359.63c-6.44-6.44-11.21-8.58-20.27-8.58-17.18,0-28.15,13.59-28.15,31.48v72h-17.17V337.21h17.17v14.31c6.44-9.78,19.32-15.74,32.92-15.74,11.21,0,19.8,2.62,28.15,11Z"/><path class="cls-1" d="M1562.3,400.42c0,25.76,12.17,40.55,34.59,40.55,13.6,0,21.47-4.05,30.77-13.36l11.69,10.26c-11.93,11.93-22.9,18.13-42.94,18.13-31,0-51.28-18.61-51.28-60.11,0-37.93,18.37-60.11,48.18-60.11,30.3,0,48.19,22,48.19,56.77v7.87ZM1620.74,368c-4.53-10.73-15-17.65-27.43-17.65s-22.9,6.92-27.43,17.65c-2.62,6.44-3.1,10-3.58,19.56h62C1623.84,378,1623.37,374.42,1620.74,368Z"/><path class="cls-1" d="M1715,456c-19.8,0-35.31-4.53-48.19-16.94l11.45-11.45c9.3,9.78,22,13.6,36.5,13.6,19.32,0,31.24-6.92,31.24-20.75,0-10.26-6-16-19.56-17.18l-19.32-1.67c-22.9-1.9-35.06-12.16-35.06-31.48,0-21.47,18.13-34.35,43.17-34.35,16.7,0,31.73,4.06,42.22,12.64l-11.21,11.21c-8.35-6.44-19.08-9.3-31.24-9.3-17.18,0-26.24,7.4-26.24,19.32,0,10,5.72,16,20.51,17.18l18.84,1.67c20.52,1.9,34.59,9.78,34.59,31.72C1762.67,442.88,1743.35,456,1715,456Z"/><path class="cls-1" d="M1826.84,454.57c-20,0-30.06-14.07-30.06-31.49v-72H1782V337.93h14.79V301.19H1814v36.74h25v13.12h-25v71.56c0,10.73,5,17.17,16,17.17H1839v14.79Z"/><path class="cls-1" d="M1881.94,400.42c0,25.76,12.16,40.55,34.58,40.55,13.6,0,21.47-4.05,30.77-13.36L1959,437.87c-11.92,11.93-22.9,18.13-42.93,18.13-31,0-51.29-18.61-51.29-60.11,0-37.93,18.37-60.11,48.19-60.11,30.29,0,48.18,22,48.18,56.77v7.87ZM1940.38,368c-4.53-10.73-15-17.65-27.43-17.65s-22.9,6.92-27.43,17.65c-2.63,6.44-3.11,10-3.58,19.56h62C1943.48,378,1943,374.42,1940.38,368Z"/><path class="cls-1" d="M2067.75,454.57V440.5c-9.54,12.4-20.51,15.5-33.39,15.5-11.93,0-22.42-4.06-28.62-10.26-11.93-11.92-14.32-31.48-14.32-49.85s2.39-37.93,14.32-49.85c6.2-6.2,16.69-10.26,28.62-10.26,12.88,0,23.61,2.86,33.16,15V284.73h17.17V454.57Zm-29.57-103.52c-25.53,0-29.58,21.94-29.58,44.84s4.05,44.84,29.58,44.84,29.34-21.94,29.34-44.84S2063.7,351.05,2038.18,351.05Z"/><path class="cls-1" d="M2138.36,400.42c0,25.76,12.17,40.55,34.59,40.55,13.59,0,21.47-4.05,30.77-13.36l11.69,10.26c-11.93,11.93-22.9,18.13-42.94,18.13-31,0-51.28-18.61-51.28-60.11,0-37.93,18.36-60.11,48.18-60.11,30.29,0,48.18,22,48.18,56.77v7.87ZM2196.8,368c-4.53-10.73-15-17.65-27.43-17.65s-22.9,6.92-27.43,17.65c-2.62,6.44-3.1,10-3.58,19.56h62C2199.9,378,2199.43,374.42,2196.8,368Z"/><path class="cls-1" d="M2319.65,359.63c-6.44-6.44-11.21-8.58-20.28-8.58-17.17,0-28.14,13.59-28.14,31.48v72h-17.18V337.21h17.18v14.31c6.44-9.78,19.32-15.74,32.91-15.74,11.21,0,19.8,2.62,28.15,11Z"/></svg>