<svg id="Lag_1" data-name="Lag 1" xmlns="http://www.w3.org/2000/svg" viewBox="0 0 2636.58 497.82"><defs><style>.cls-1{fill:#fff;}.cls-2{fill:#00783d;}.cls-3{fill:#3e3e3e;}.cls-4{fill:#009949;}</style></defs><title>logo</title><path class="cls-1" d="M11.68,251.91V12.3H765V510.11H399.87a12.44,12.44,0,0,1,1.89-.39c6.84-.33,13.69-.41,20.51-1,16.35-1.34,32.71-2.64,49-4.44a539.17,539.17,0,0,0,70.5-12.82c34.1-8.47,67-20.13,98.07-36.71,29.61-15.8,56.37-35.34,78.65-60.65,19.23-21.84,33.75-46.34,41.39-74.63,4-14.92,5.68-30.05,3.66-45.46-2.37-18-8.13-34.9-16.08-51.12-12.4-25.3-29.1-47.52-48.51-67.81-2.51-2.62-5-5.28-7.46-7.93l-.55.51c1.12,1.79,2.23,3.59,3.38,5.37a15.06,15.06,0,0,0,1.38,1.72,128.44,128.44,0,0,1,23.44,38.95,141.27,141.27,0,0,1,9.11,41.89,152.89,152.89,0,0,1-.11,24.68c-1.39,14-6.31,27.16-12.48,39.79-13.17,26.93-31.86,49.59-54,69.52-30,26.95-64.3,46.79-101.54,61.77-39.2,15.76-80,25.23-121.83,30.55a636.45,636.45,0,0,1-64.7,4.78q-30.16.74-60.27-1.52a583.74,583.74,0,0,1-62.36-8c-33.87-6.26-66.86-15.5-98.67-28.8-24.8-10.38-48.49-22.77-69.7-39.5-8.29-6.53-16.28-13.44-22.26-22.27-9-13.28-12.72-28.34-14.18-44.05-1.29-13.88-.13-27.67,2.29-41.34C55,244.44,72,213.1,98,186.48c20.14-20.6,43.67-36.49,69.21-49.55,27.88-14.25,57.23-24.63,87.41-32.76A622.12,622.12,0,0,1,329.09,88.7q29.49-4.17,59.12-7.35a286,286,0,0,1,47-.71c16.16,1,32.31,2.16,48.46,3.27,3.21.23,6.4.55,9.85.85-3.89,11.43-7.69,22.57-11.48,33.71a5.09,5.09,0,0,0,2.11-1.14c11.61-9.24,23.59-17.91,37.18-24,12.4-5.6,24.87-11,37.31-16.55l2.73-1.23c-12.56-9.64-25-18.94-37.19-28.58S502.28,25.12,491.34,14c1.76,10,3.51,20,5.3,30.27-.92-.06-1.5-.07-2.06-.14-13.44-1.65-26.84-3.69-40.31-4.86-15.83-1.38-31.72-2.48-47.6-2.83-16-.35-32.1.07-48.13.68-12.27.47-24.54,1.53-36.77,2.74q-30,3-59.59,8.64c-31.7,6.1-62.71,14.57-92.69,26.61-30.36,12.19-58.89,27.63-84.41,48.27C61.26,142.69,41.45,165.3,27.82,193A151.91,151.91,0,0,0,12.54,245.2C12.31,247.44,12,249.67,11.68,251.91Zm370.74,97.68-.65.08c-.19-.61-.41-1.21-.55-1.82-3.32-14.24-6.14-28.61-10-42.68-10.05-36.23-20.58-72.33-30.86-108.5-.45-1.59-1.22-1.84-2.64-1.84-14.88,0-29.77,0-44.65,0h-2.4c.21.81.33,1.37.51,1.91q4.69,14.69,9.42,29.37,26.44,82.1,52.84,164.2c.62,1.94,1.41,2.57,3.48,2.57,44.07-.07,88.13,0,132.19-.12,9.11,0,18.26-.42,27.32-1.33a79.73,79.73,0,0,0,33.16-10.52c15.57-9.21,24.75-22.69,26.69-40.83a108.2,108.2,0,0,0-.59-25.56c-1.36-10.48-5.46-19.64-13.7-26.63-6.73-5.7-14.58-9.33-22.72-12.44-7.08-2.71-14.21-5.36-20.29-10-11-8.47-9-24.06,3.78-29.48a42.49,42.49,0,0,1,16.36-3.11c8.91-.08,17.83,0,26.75,0h2.65V194.77c-.59,0-1.16-.13-1.74-.13-11.35,0-22.7-.16-34,0a90.18,90.18,0,0,0-28.61,4.68c-14.18,5-25.15,13.64-31.28,27.67-5.41,12.42-6,25.36-3.59,38.51a47.51,47.51,0,0,0,15.18,27c8.43,7.66,18.46,12.49,29.05,16.31,5.75,2.07,11.47,4.21,16.39,8,2.76,2.12,5.17,4.73,5.56,8.2a64.86,64.86,0,0,1,.36,14.26c-.74,6.67-5.57,10.45-11.34,13-8.09,3.59-16.71,4.52-25.44,4.53q-38.81.08-77.59,0h-2.72C437,302.76,455.21,248.94,473.48,195c-.71-.06-1.14-.13-1.58-.13-14.81,0-29.62,0-44.43,0-1.52,0-2,.64-2.34,1.92q-9.18,30.94-18.46,61.85c-7.84,26.1-15.6,52.22-21.54,78.84Q383.77,343.51,382.42,349.59ZM247.65,355V194.22H202.82V392.71H326.56V355Zm204.84-9A17,17,0,0,0,469.63,329a17.15,17.15,0,1,0-34.3,0A17,17,0,0,0,452.49,346Zm58.7-16.17A16.9,16.9,0,1,0,494,346.79,16.79,16.79,0,0,0,511.19,329.86Z" transform="translate(-11.68 -12.3)"/><path class="cls-2" d="M11.68,251.91c.29-2.24.63-4.47.86-6.71A151.91,151.91,0,0,1,27.82,193c13.63-27.66,33.44-50.27,57.26-69.54,25.52-20.64,54.05-36.08,84.41-48.27,30-12,61-20.51,92.69-26.61q29.61-5.68,59.59-8.64c12.23-1.21,24.5-2.27,36.77-2.74,16-.61,32.1-1,48.13-.68,15.88.35,31.77,1.45,47.6,2.83,13.47,1.17,26.87,3.21,40.31,4.86.56.07,1.14.08,2.06.14-1.79-10.23-3.54-20.25-5.3-30.27C502.28,25.12,512,37.27,524.19,46.92s24.63,18.94,37.19,28.58l-2.73,1.23c-12.44,5.51-24.91,11-37.31,16.55-13.59,6.14-25.57,14.81-37.18,24a5.09,5.09,0,0,1-2.11,1.14c3.79-11.14,7.59-22.28,11.48-33.71-3.45-.3-6.64-.62-9.85-.85-16.15-1.11-32.3-2.32-48.46-3.27a286,286,0,0,0-47,.71q-29.61,3.16-59.12,7.35a622.12,622.12,0,0,0-74.47,15.47c-30.18,8.13-59.53,18.51-87.41,32.76C141.67,150,118.14,165.88,98,186.48c-26,26.62-43,58-49.56,94.76-2.42,13.67-3.58,27.46-2.29,41.34,1.46,15.71,5.2,30.77,14.18,44.05,6,8.83,14,15.74,22.26,22.27,21.21,16.73,44.9,29.12,69.7,39.5,31.81,13.3,64.8,22.54,98.67,28.8a583.74,583.74,0,0,0,62.36,8q30.1,2.26,60.27,1.52a636.45,636.45,0,0,0,64.7-4.78c41.83-5.32,82.63-14.79,121.83-30.55,37.24-15,71.58-34.82,101.54-61.77,22.16-19.93,40.85-42.59,54-69.52,6.17-12.63,11.09-25.75,12.48-39.79a152.89,152.89,0,0,0,.11-24.68,141.27,141.27,0,0,0-9.11-41.89,128.44,128.44,0,0,0-23.44-38.95,15.06,15.06,0,0,1-1.38-1.72c-1.15-1.78-2.26-3.58-3.38-5.37l.55-.51c2.48,2.65,5,5.31,7.46,7.93,19.41,20.29,36.11,42.51,48.51,67.81,7.95,16.22,13.71,33.14,16.08,51.12,2,15.41.37,30.54-3.66,45.46-7.64,28.29-22.16,52.79-41.39,74.63-22.28,25.31-49,44.85-78.65,60.65-31.06,16.58-64,28.24-98.07,36.71a539.17,539.17,0,0,1-70.5,12.82c-16.31,1.8-32.67,3.1-49,4.44-6.82.56-13.67.64-20.51,1a12.44,12.44,0,0,0-1.89.39H352.56a14.12,14.12,0,0,0-2.1-.4,450.88,450.88,0,0,1-48.53-4.62,419.66,419.66,0,0,1-77.64-19c-57.21-20.11-107.41-51.2-149-95.67-20.18-21.6-37.2-45.41-49.58-72.37C19.7,304.91,15,291.34,12.91,277c-.45-3.18-.82-6.38-1.23-9.56Z" transform="translate(-11.68 -12.3)"/><path class="cls-1" d="M11.68,267.39c.41,3.18.78,6.38,1.23,9.56,2.06,14.39,6.79,28,12.83,41.11,12.38,27,29.4,50.77,49.58,72.37,41.56,44.47,91.76,75.56,149,95.67a419.66,419.66,0,0,0,77.64,19,450.88,450.88,0,0,0,48.53,4.62,14.12,14.12,0,0,1,2.1.4H11.68Z" transform="translate(-11.68 -12.3)"/><path class="cls-3" d="M382.42,349.59q1.35-6.07,2.71-12.16c5.94-26.62,13.7-52.74,21.54-78.84q9.27-30.9,18.46-61.85c.38-1.28.82-1.93,2.34-1.92,14.81.06,29.62,0,44.43,0,.44,0,.87.07,1.58.13-18.27,53.95-36.48,107.77-54.81,161.9h2.72q38.79,0,77.59,0c8.73,0,17.35-.94,25.44-4.53,5.77-2.57,10.6-6.35,11.34-13a64.86,64.86,0,0,0-.36-14.26c-.39-3.47-2.8-6.08-5.56-8.2-4.92-3.78-10.64-5.92-16.39-8-10.59-3.82-20.62-8.65-29.05-16.31a47.51,47.51,0,0,1-15.18-27c-2.44-13.15-1.82-26.09,3.59-38.51,6.13-14,17.1-22.68,31.28-27.67a90.18,90.18,0,0,1,28.61-4.68c11.34-.2,22.69-.05,34,0,.58,0,1.15.09,1.74.13v38.06h-2.65c-8.92,0-17.84-.06-26.75,0A42.49,42.49,0,0,0,522.72,236c-12.79,5.42-14.82,21-3.78,29.48,6.08,4.67,13.21,7.32,20.29,10,8.14,3.11,16,6.74,22.72,12.44,8.24,7,12.34,16.15,13.7,26.63a108.2,108.2,0,0,1,.59,25.56c-1.94,18.14-11.12,31.62-26.69,40.83a79.73,79.73,0,0,1-33.16,10.52c-9.06.91-18.21,1.31-27.32,1.33-44.06.13-88.12.05-132.19.12-2.07,0-2.86-.63-3.48-2.57Q327,308.21,300.56,226.13q-4.72-14.69-9.42-29.37c-.18-.54-.3-1.1-.51-1.91H293c14.88,0,29.77,0,44.65,0,1.42,0,2.19.25,2.64,1.84,10.28,36.17,20.81,72.27,30.86,108.5,3.9,14.07,6.72,28.44,10,42.68.14.61.36,1.21.55,1.82Z" transform="translate(-11.68 -12.3)"/><path class="cls-3" d="M247.65,355h78.91v37.72H202.82V194.22h44.83Z" transform="translate(-11.68 -12.3)"/><path class="cls-2" d="M452.49,346a17,17,0,0,1-17.16-17,17.15,17.15,0,1,1,34.3,0A17,17,0,0,1,452.49,346Z" transform="translate(-11.68 -12.3)"/><path class="cls-4" d="M511.19,329.86a16.9,16.9,0,1,1-16.86-17A16.78,16.78,0,0,1,511.19,329.86Z" transform="translate(-11.68 -12.3)"/><path class="cls-3" d="M851.63,223.12V53.28h33.16V193.54h77v29.58Z" transform="translate(-11.68 -12.3)"/><path class="cls-3" d="M1050.09,223.12V212.38c-8.35,8.35-16.22,11.93-30.53,11.93-14.07,0-24.33-3.58-31.72-11-6.68-6.92-10.26-16.94-10.26-27.91,0-19.8,13.6-36,42.46-36h29.34v-6.2c0-13.6-6.68-19.56-23.14-19.56-11.93,0-17.41,2.86-23.85,10.26l-19.8-19.32c12.16-13.36,24.09-17.18,44.84-17.18,34.83,0,53,14.79,53,43.89v81.82Zm-.71-52.48h-24.57c-11.21,0-17.41,5.25-17.41,14.08,0,8.58,5.72,14.31,17.89,14.31,8.58,0,14.07-.72,19.55-6,3.34-3.1,4.54-8.11,4.54-15.74Z" transform="translate(-11.68 -12.3)"/><path class="cls-3" d="M1186.06,223.12V148c0-16.93-10.74-22.66-20.52-22.66s-20.75,5.73-20.75,22.66v75.14h-31V98.84h30.3v11.45c8.1-8.58,19.55-12.88,31-12.88,12.41,0,22.43,4.06,29.34,11,10,10,12.65,21.7,12.65,35.3v79.43Z" transform="translate(-11.68 -12.3)"/><path class="cls-3" d="M1319.16,223.12V211.43c-8.59,9.54-17.65,13.12-30.77,13.12-12.17,0-23.62-4.29-30.53-11.21-12.41-12.4-12.65-33.87-12.65-52.48s.24-39.83,12.65-52.24c6.91-6.91,18.12-11.21,30.29-11.21,12.64,0,22.18,3.34,30.29,12.41V53.28h31V223.12Zm-22-97.8c-18.6,0-21,15.27-21,35.54s2.39,35.78,21,35.78,21.23-15.5,21.23-35.78S1315.82,125.32,1297.21,125.32Z" transform="translate(-11.68 -12.3)"/><path class="cls-3" d="M1425.07,224.55c-19.56,0-37.21-2.15-53-17.89l20.28-20.28c10.26,10.26,23.61,11.69,33.15,11.69,10.74,0,22-3.57,22-12.88,0-6.2-3.34-10.49-13.12-11.45l-19.56-1.91c-22.42-2.14-36.26-11.92-36.26-34.82,0-25.76,22.66-39.6,48-39.6,19.32,0,35.54,3.34,47.47,14.55l-19.09,19.32c-7.15-6.44-18.13-8.34-28.86-8.34-12.4,0-17.65,5.72-17.65,11.92,0,4.53,1.91,9.78,12.88,10.74l19.56,1.9c24.57,2.39,37,15.51,37,36.5C1477.78,211.43,1454.41,224.55,1425.07,224.55Z" transform="translate(-11.68 -12.3)"/><path class="cls-3" d="M1538.61,126v97.08h-31V126h-12.88V102.42h12.88V86.92c0-17.65,11-35.54,36.25-35.54h17.66V77.62h-12.17c-7.39,0-10.73,4-10.73,11.21v13.59h22.9V126Z" transform="translate(-11.68 -12.3)"/><path class="cls-3" d="M1667.42,209.28c-7.64,8.11-20.28,15.27-38.65,15.27s-30.77-7.16-38.4-15.27c-11.21-11.68-14.07-25.76-14.07-48.42,0-22.42,2.86-36.49,14.07-48.18,7.63-8.11,20-15.27,38.4-15.27s31,7.16,38.65,15.27c11.21,11.69,14.07,25.76,14.07,48.18C1681.49,183.52,1678.63,197.6,1667.42,209.28Zm-24.1-78.47c-3.57-3.58-8.34-5.49-14.55-5.49s-10.73,1.91-14.31,5.49c-6.44,6.44-7.15,17.17-7.15,30.05s.71,23.86,7.15,30.3c3.58,3.57,8.11,5.48,14.31,5.48s11-1.91,14.55-5.48c6.44-6.44,7.16-17.42,7.16-30.3S1649.76,137.25,1643.32,130.81Z" transform="translate(-11.68 -12.3)"/><path class="cls-3" d="M1778.57,132.72c-4.77-4.77-8.82-7.4-16.46-7.4-9.54,0-20,7.16-20,22.9v74.9h-31V98.84h30.29v11.93c6-7.15,17.89-13.36,31.25-13.36,12.16,0,20.75,3.1,29.34,11.69Z" transform="translate(-11.68 -12.3)"/><path class="cls-3" d="M1836.54,170.64c0,16,9.78,27.67,27.19,27.67,13.6,0,20.28-3.81,28.15-11.69L1910.72,205c-12.64,12.64-24.81,19.56-47.23,19.56-29.34,0-57.48-13.36-57.48-63.69,0-40.55,21.94-63.45,54.14-63.45,34.59,0,54.15,25.29,54.15,59.4v13.83Zm44.36-34.58c-3.33-7.4-10.25-12.89-20.75-12.89s-17.41,5.49-20.75,12.89a34.23,34.23,0,0,0-2.86,13.35h47.23A34.23,34.23,0,0,0,1880.9,136.06Z" transform="translate(-11.68 -12.3)"/><path class="cls-3" d="M2015.2,223.12V148c0-16.93-10.74-22.66-20.52-22.66s-20.75,5.73-20.75,22.66v75.14h-31V98.84h30.3v11.45c8.1-8.58,19.55-12.88,31-12.88,12.41,0,22.43,4.06,29.34,11,10,10,12.65,21.7,12.65,35.3v79.43Z" transform="translate(-11.68 -12.3)"/><path class="cls-3" d="M2079.12,77.62V52.33h31.73V77.62Zm.48,145.5V98.84h31V223.12Z" transform="translate(-11.68 -12.3)"/><path class="cls-3" d="M2217.47,223.12V148c0-16.93-10.73-22.66-20.51-22.66s-20.75,5.73-20.75,22.66v75.14h-31V98.84h30.29v11.45c8.11-8.58,19.56-12.88,31-12.88,12.4,0,22.42,4.06,29.34,11,10,10,12.64,21.7,12.64,35.3v79.43Z" transform="translate(-11.68 -12.3)"/><path class="cls-3" d="M2324.81,270.11c-19.08,0-32.2-3.82-45.08-16.22l19.32-19.56c6.92,6.68,13.84,9.54,24.33,9.54,18.61,0,25-13.12,25-25.76V205.47c-8.11,9.06-17.41,12.4-29.58,12.4s-22.66-4.05-29.58-11c-11.69-11.69-12.64-27.67-12.64-49.38s.95-37.45,12.64-49.13c6.92-6.92,17.65-11,29.82-11,13.12,0,21.71,3.58,30.29,13.12V98.84h30.06V218.59C2379.44,248.4,2358.21,270.11,2324.81,270.11Zm3.1-144.79c-18.36,0-20.27,15.74-20.27,32.2s1.91,32.44,20.27,32.44,20.52-16,20.52-32.44S2346.28,125.32,2327.91,125.32Z" transform="translate(-11.68 -12.3)"/><path class="cls-3" d="M2438.59,170.64c0,16,9.78,27.67,27.2,27.67,13.59,0,20.27-3.81,28.14-11.69L2512.78,205c-12.65,12.64-24.81,19.56-47.23,19.56-29.34,0-57.49-13.36-57.49-63.69,0-40.55,22-63.45,54.15-63.45,34.59,0,54.14,25.29,54.14,59.4v13.83ZM2483,136.06c-3.34-7.4-10.26-12.89-20.75-12.89s-17.41,5.49-20.75,12.89a34.23,34.23,0,0,0-2.87,13.35h47.23A34.23,34.23,0,0,0,2483,136.06Z" transform="translate(-11.68 -12.3)"/><path class="cls-3" d="M2617.25,223.12V148c0-16.93-10.73-22.66-20.51-22.66S2576,131.05,2576,148v75.14h-31V98.84h30.29v11.45c8.11-8.58,19.56-12.88,31-12.88,12.4,0,22.42,4.06,29.34,11,10,10,12.64,21.7,12.64,35.3v79.43Z" transform="translate(-11.68 -12.3)"/><path class="cls-3" d="M919.85,454.57V443.36C910.31,452.9,901.72,456,886,456c-16.22,0-25.76-3.1-33.15-10.73-5.73-5.73-8.83-14.55-8.83-23.86,0-20.51,14.31-33.87,40.55-33.87h35.3V376.33c0-17.17-8.58-25.76-30.05-25.76-15,0-22.66,3.58-29.58,13.36l-11.69-10.74C859,339.6,871,335.78,890,335.78c31.48,0,47,13.6,47,39.12v79.67Zm0-54.15H886.94c-17.66,0-26.24,7.16-26.24,20.75s8.35,20,26.95,20c10,0,18.84-.71,26.24-7.87,4.05-3.82,6-10.5,6-20.28Z" transform="translate(-11.68 -12.3)"/><path class="cls-3" d="M999.76,351.05V454.57H982.58V351.05h-15V337.93h15V315.74c0-17.41,9.79-31.48,29.82-31.48h12.41v14.79h-9.31c-11,0-15.74,6.44-15.74,17.17v21.71h25v13.12Z" transform="translate(-11.68 -12.3)"/><path class="cls-3" d="M1164.11,454.57h-14.79L1093.5,284.73h19.08l44.13,137.4,44.13-137.4h19.08Z" transform="translate(-11.68 -12.3)"/><path class="cls-3" d="M1317.24,400.42c0,25.76,12.41,40.55,34.83,40.55,13.6,0,21.23-4.05,30.53-13.36l11.93,10.26C1382.6,449.8,1371.15,456,1351.12,456c-18.37,0-33.16-6.44-41.75-20.27C1298.64,451,1286.71,456,1266.44,456c-16.22,0-25.76-3.1-33.16-10.73-5.72-5.73-8.82-14.55-8.82-23.86,0-20.51,14.31-33.87,40.55-33.87h35.3V376.33c0-17.17-8.59-25.76-30.06-25.76-15,0-22.66,3.58-29.57,13.36L1229,353.19c10.49-13.59,22.42-17.41,41.5-17.41,21.23,0,34.83,6.2,41.27,18.37,8.11-11.93,20.75-18.37,36.73-18.37,30.3,0,48.19,22,48.19,56.77v7.87Zm-16.93,0h-32.92c-17.65,0-26.24,7.16-26.24,20.75s8.35,20,27,20c10,0,18.84-.71,26.24-7.87,4.05-3.82,6-10.5,6-20.28ZM1375.92,368c-4.53-10.73-15-17.65-27.43-17.65s-22.9,6.92-27.43,17.65c-2.62,6.44-3.34,10-3.82,19.56h62.26C1379,378,1378.55,374.42,1375.92,368Z" transform="translate(-11.68 -12.3)"/><path class="cls-3" d="M1498.53,359.63c-6.44-6.44-11.21-8.58-20.28-8.58-17.17,0-28.14,13.59-28.14,31.48v72h-17.18V337.21h17.18v14.31c6.44-9.78,19.32-15.74,32.91-15.74,11.22,0,19.8,2.62,28.15,11Z" transform="translate(-11.68 -12.3)"/><path class="cls-3" d="M1536,400.42c0,25.76,12.16,40.55,34.59,40.55,13.59,0,21.46-4.05,30.77-13.36L1613,437.87C1601.1,449.8,1590.13,456,1570.09,456c-31,0-51.28-18.61-51.28-60.11,0-37.93,18.36-60.11,48.18-60.11,30.29,0,48.18,22,48.18,56.77v7.87ZM1594.42,368c-4.53-10.73-15-17.65-27.43-17.65s-22.9,6.92-27.43,17.65c-2.63,6.44-3.1,10-3.58,19.56h62C1597.52,378,1597,374.42,1594.42,368Z" transform="translate(-11.68 -12.3)"/><path class="cls-3" d="M1688.64,456c-19.8,0-35.3-4.53-48.18-16.94l11.45-11.45c9.3,9.78,21.94,13.6,36.49,13.6,19.32,0,31.25-6.92,31.25-20.75,0-10.26-6-16-19.56-17.18l-19.32-1.67c-22.9-1.9-35.06-12.16-35.06-31.48,0-21.47,18.12-34.35,43.17-34.35,16.7,0,31.72,4.06,42.22,12.64l-11.21,11.21c-8.35-6.44-19.08-9.3-31.25-9.3-17.17,0-26.24,7.4-26.24,19.32,0,10,5.73,16,20.52,17.18l18.84,1.67c20.51,1.9,34.59,9.78,34.59,31.72C1736.35,442.88,1717,456,1688.64,456Z" transform="translate(-11.68 -12.3)"/><path class="cls-3" d="M1800.51,454.57c-20,0-30-14.07-30-31.49v-72h-14.79V337.93h14.79V301.19h17.17v36.74h25v13.12h-25v71.56c0,10.73,5,17.17,16,17.17h9.07v14.79Z" transform="translate(-11.68 -12.3)"/><path class="cls-3" d="M1855.61,400.42c0,25.76,12.17,40.55,34.59,40.55,13.6,0,21.47-4.05,30.77-13.36l11.69,10.26c-11.93,11.93-22.9,18.13-42.94,18.13-31,0-51.28-18.61-51.28-60.11,0-37.93,18.37-60.11,48.18-60.11,30.3,0,48.19,22,48.19,56.77v7.87ZM1914.05,368c-4.53-10.73-15-17.65-27.43-17.65s-22.9,6.92-27.43,17.65c-2.62,6.44-3.1,10-3.58,19.56h62C1917.15,378,1916.68,374.42,1914.05,368Z" transform="translate(-11.68 -12.3)"/><path class="cls-3" d="M2041.43,454.57V440.5c-9.54,12.4-20.51,15.5-33.39,15.5-11.93,0-22.43-4.06-28.63-10.26-11.92-11.92-14.31-31.48-14.31-49.85s2.39-37.93,14.31-49.85c6.2-6.2,16.7-10.26,28.63-10.26,12.88,0,23.61,2.86,33.15,15V284.73h17.18V454.57Zm-29.58-103.52c-25.52,0-29.58,21.94-29.58,44.84s4.06,44.84,29.58,44.84,29.34-21.94,29.34-44.84S2037.38,351.05,2011.85,351.05Z" transform="translate(-11.68 -12.3)"/><path class="cls-3" d="M2112,400.42c0,25.76,12.16,40.55,34.58,40.55,13.6,0,21.47-4.05,30.78-13.36l11.68,10.26c-11.92,11.93-22.9,18.13-42.93,18.13-31,0-51.29-18.61-51.29-60.11,0-37.93,18.37-60.11,48.19-60.11,30.29,0,48.18,22,48.18,56.77v7.87ZM2170.48,368c-4.53-10.73-15-17.65-27.43-17.65s-22.9,6.92-27.43,17.65c-2.63,6.44-3.1,10-3.58,19.56h62C2173.58,378,2173.1,374.42,2170.48,368Z" transform="translate(-11.68 -12.3)"/><path class="cls-3" d="M2293.32,359.63c-6.44-6.44-11.21-8.58-20.27-8.58-17.18,0-28.15,13.59-28.15,31.48v72h-17.17V337.21h17.17v14.31c6.44-9.78,19.32-15.74,32.92-15.74,11.21,0,19.8,2.62,28.15,11Z" transform="translate(-11.68 -12.3)"/></svg>