<svg xmlns="http://www.w3.org/2000/svg" xmlns:xlink="http://www.w3.org/1999/xlink" viewBox="3286.023 -418 164.977 189">
  <defs>
    <style>
      .cls-1, .cls-6 {
        fill: #fff;
      }

      .cls-2 {
        opacity: 0.5;
        fill: url(#linear-gradient);
      }

      .cls-3 {
        opacity: 0.25;
      }

      .cls-4 {
        opacity: 0.9;
        fill: url(#linear-gradient-3);
      }

      .cls-5 {
        opacity: 0.7;
        fill: url(#linear-gradient-4);
      }

      .cls-6 {
        font-size: 31px;
        font-family: Roboto-Bold, Roboto;
        font-weight: 700;
        letter-spacing: 0.019em;
      }
    </style>
    <linearGradient id="linear-gradient" x1="0.487" y1="0.76" x2="0.524" y2="-0.006" gradientUnits="objectBoundingBox">
      <stop offset="0" stop-color="#504678"/>
      <stop offset="0.302" stop-color="#504678" stop-opacity="0.616"/>
      <stop offset="0.608" stop-color="#504678" stop-opacity="0.282"/>
      <stop offset="0.852" stop-color="#504678" stop-opacity="0.075"/>
      <stop offset="1" stop-color="#504678" stop-opacity="0"/>
    </linearGradient>
    <linearGradient id="linear-gradient-3" x1="0.137" y1="0.663" x2="0.574" y2="0.413" gradientUnits="objectBoundingBox">
      <stop offset="0" stop-color="#504678"/>
      <stop offset="0.179" stop-color="#504678" stop-opacity="0.871"/>
      <stop offset="0.526" stop-color="#504678" stop-opacity="0.537"/>
      <stop offset="1" stop-color="#504678" stop-opacity="0"/>
    </linearGradient>
    <linearGradient id="linear-gradient-4" x1="0.477" y1="0.35" x2="0.453" y2="0.184" gradientUnits="objectBoundingBox">
      <stop offset="0" stop-color="#504678"/>
      <stop offset="0.643" stop-color="#504678" stop-opacity="0.333"/>
      <stop offset="1" stop-color="#504678" stop-opacity="0"/>
    </linearGradient>
  </defs>
  <g id="Group_899" data-name="Group 899" transform="translate(1671 -6340)">
    <g id="MP_RGB_NoTM_Logo_Type_Vertical_White" data-name="MP_RGB_NoTM_Logo+Type Vertical White" transform="translate(1614.068 5921.997)">
      <g id="Group_698" data-name="Group 698" transform="translate(40.553 0.003)">
        <path id="Path_228" data-name="Path 228" class="cls-1" d="M32.082,85.231a7.211,7.211,0,0,1-6.661-4.448L.552,20.747a7.2,7.2,0,0,1,3.9-9.407L30.5.552a7.2,7.2,0,0,1,9.406,3.9L64.771,64.486a7.2,7.2,0,0,1-3.9,9.4L34.827,84.682A7.167,7.167,0,0,1,32.082,85.231ZM33.251,3.877a3.315,3.315,0,0,0-1.271.256L5.931,14.921a3.323,3.323,0,0,0-1.8,4.342L29,79.3a3.328,3.328,0,0,0,4.342,1.8l26.048-10.8h0a3.323,3.323,0,0,0,1.8-4.342L36.321,5.93A3.329,3.329,0,0,0,33.251,3.877Z" transform="translate(-0.002 -0.003)"/>
        <rect id="Rectangle_91" data-name="Rectangle 91" class="cls-2" width="3.876" height="25.731" transform="translate(37.961 9.887) rotate(-22.5)"/>
        <rect id="Rectangle_92" data-name="Rectangle 92" class="cls-2" width="3.876" height="29.126" transform="translate(63.114 60.49) rotate(157.5)"/>
        <path id="Path_229" data-name="Path 229" class="cls-1" d="M49.909,41.315c-7.45,3.089-13.67,7.347-17.742,12.48l-10.5-25.36a44.34,44.34,0,0,1,17.742-12.48c7.45-3.089,14.976-4.584,21.37-3.713L71.281,37.6A44.32,44.32,0,0,0,49.909,41.315Z" transform="translate(5.102 2.823)"/>
        <g id="Group_697" data-name="Group 697" class="cls-3" transform="translate(26.768 14.819)">
          <path id="Path_230" data-name="Path 230" class="cls-4" d="M28.909,30.315c-7.45,3.089-13.67,7.347-17.742,12.48L.666,17.435A44.34,44.34,0,0,1,18.408,4.955c7.45-3.089,14.976-4.584,21.37-3.713L50.281,26.6A44.32,44.32,0,0,0,28.909,30.315Z" transform="translate(-0.666 -0.996)"/>
          <path id="Path_231" data-name="Path 231" class="cls-5" d="M28.909,30.315c-7.45,3.089-13.67,7.347-17.742,12.48L.666,17.435A44.34,44.34,0,0,1,18.408,4.955c7.45-3.089,14.976-4.584,21.37-3.713L50.281,26.6A44.32,44.32,0,0,0,28.909,30.315Z" transform="translate(-0.666 -0.996)"/>
        </g>
        <path id="Path_232" data-name="Path 232" class="cls-1" d="M51.328,46.874c-8.064,0-15.445,1.558-21.166,4.739V25.971a44.34,44.34,0,0,1,21.166-4.739c8.064,0,15.59,1.5,21.165,4.745V51.618A44.32,44.32,0,0,0,51.328,46.874Z" transform="translate(7.104 4.995)"/>
      </g>
      <path id="Path_233" data-name="Path 233" class="cls-1" d="M1.01,107.105,7.534,86.483a.68.68,0,0,1,.605-.519h3.274a.8.8,0,0,1,.643.519l5.078,13.011c.1.259.358.284.445,0l5.054-13.011a.8.8,0,0,1,.643-.519h3.274a.68.68,0,0,1,.605.519l6.388,20.622a.494.494,0,0,1-.482.7H29.195a.568.568,0,0,1-.581-.445L24.487,93.971c-.062-.259-.358-.259-.445,0l-4.942,13.3a.729.729,0,0,1-.7.544H16.147a.68.68,0,0,1-.68-.544l-5.041-13.3c-.1-.259-.358-.259-.42,0L5.768,107.365a.581.581,0,0,1-.605.445H1.455a.482.482,0,0,1-.445-.7Zm33.807-7.352a8.649,8.649,0,1,1,8.649,8.476,8.365,8.365,0,0,1-8.649-8.476Zm12.85,0a4.251,4.251,0,1,0-2.02,3.95A4.25,4.25,0,0,0,47.667,99.753ZM59.739,106.5c-.321-.259-.605-.161-.605.284v.457a.605.605,0,0,1-.581.605H55.538a.63.63,0,0,1-.605-.605V86.582a.63.63,0,0,1,.605-.605h3.176a.605.605,0,0,1,.581.605v5.832c0,.42.284.544.741.222a7.055,7.055,0,0,1,4.213-1.409c4.4,0,7.772,3.707,7.772,8.476a8.093,8.093,0,0,1-7.908,8.476A6.574,6.574,0,0,1,59.739,106.5Zm7.908-6.746a4.251,4.251,0,1,0-8.489,0,4.3,4.3,0,0,0,4.213,4.461,4.362,4.362,0,0,0,4.275-4.461Zm7.031-12.282a2.471,2.471,0,1,1,2.471,2.471A2.471,2.471,0,0,1,74.678,87.471Zm.222,19.77V92.29a.605.605,0,0,1,.581-.605h3.176a.63.63,0,0,1,.605.605v14.951a.63.63,0,0,1-.605.605H75.481a.605.605,0,0,1-.568-.605Zm7.957-4.942V86.582a.605.605,0,0,1,.581-.605h3.176a.63.63,0,0,1,.605.605v15.865c0,1.026.445,1.705,1.569,1.705a.605.605,0,0,1,.605.605v2.632a.605.605,0,0,1-.605.581C84.563,107.97,82.858,106.586,82.858,102.3Zm7.71-2.471a8.353,8.353,0,0,1,16.706,0c0,.581-.161,1.063-.741,1.063H95.486c-.284,0-.383.161-.358.42a3.707,3.707,0,0,0,3.917,3.176A3.942,3.942,0,0,0,102.1,103.1a1.236,1.236,0,0,1,1.026-.519h2.916c.519,0,.741.358.544.865a8.464,8.464,0,0,1-16.063-3.707Zm11.726-1.483c.222,0,.321-.1.284-.358a3.707,3.707,0,0,0-3.707-3.015A3.818,3.818,0,0,0,95.164,97.9c-.062.222,0,.445.259.445Zm7.648,8.9V86.582a.605.605,0,0,1,.581-.605h10.12c4.621,0,7.772,2.694,7.772,7.228s-3.571,7.327-7.994,7.327h-5.363a.531.531,0,0,0-.581.605v6.1a.63.63,0,0,1-.605.605h-3.336A.605.605,0,0,1,109.942,107.241Zm10.478-10.4a3.484,3.484,0,0,0,3.435-3.571,3.3,3.3,0,0,0-3.435-3.435h-5.4c-.383,0-.544.2-.544.581v5.844c0,.383.161.581.544.581Zm9.5,2.916a8.167,8.167,0,0,1,7.97-8.476,6.475,6.475,0,0,1,4.275,1.643c.284.259.605.222.605-.161v-.482a.581.581,0,0,1,.581-.581h3.015a.63.63,0,0,1,.605.605v10.639c0,.8.284,1.161.84,1.236a.556.556,0,0,1,.544.519v2.792a.544.544,0,0,1-.544.544c-2.125,0-3.373-.605-4.078-1.829-.2-.321-.42-.383-.741-.062a7.092,7.092,0,0,1-5.177,2.15,8.143,8.143,0,0,1-7.9-8.538Zm12.85,0a4.238,4.238,0,1,0-2.014,3.939,4.238,4.238,0,0,0,2.014-3.939Zm7.13,13.666v-2.607a.605.605,0,0,1,.605-.581,4.5,4.5,0,0,0,4.621-3.089,1.779,1.779,0,0,0-.124-1.236L149.1,92.537a.581.581,0,0,1,.519-.865h3.176c.321,0,.519.259.643.581l3.707,8.55c.259.68.68.643.964,0l3.534-8.575c.124-.321.284-.519.605-.519h3.1a.556.556,0,0,1,.544.766l-6.067,14.42c-2.212,5.239-4.559,7.191-9.255,7.191a.63.63,0,0,1-.667-.667Z" transform="translate(0 20.027)"/>
    </g>
    <text id="Til:_7592_" data-name="Til: 7592 " class="cls-6" transform="translate(1629.023 6103)"><tspan x="0" y="0">Til: 7592 </tspan></text>
  </g>
</svg>
