<?xml version="1.0" encoding="utf-8"?>
<!-- Generator: Adobe Illustrator 22.0.1, SVG Export Plug-In . SVG Version: 6.00 Build 0)  -->
<svg version="1.1" id="Layer_1" xmlns="http://www.w3.org/2000/svg" xmlns:xlink="http://www.w3.org/1999/xlink" x="0px" y="0px"
	 viewBox="0 0 136 159" style="enable-background:new 0 0 136 159;" xml:space="preserve">
<style type="text/css">
	.st0{fill:#00783D;}
	.st1{fill:#E7F2EC;}
	.st2{fill:#3F996C;}
	.st3{fill:#F1F7F4;}
	.st4{fill:#F9FBFA;}
	.st5{fill:#EDF5F1;}
	.st6{fill:#01783D;}
	.st7{fill:#0A7D44;}
	.st8{fill:#077B42;}
	.st9{fill:#E6F1EB;}
</style>
<g>
	<path class="st0" d="M66,1c2.3,0,4.7,0,7,0c2.6,1.4,5.2,2.7,7.6,4c9-2.7,15.5,0.7,20.5,7.6c9.1,0.7,14.4,5.6,16.6,14
		c8.5,3.8,11.8,10.5,11.1,19.3c4.4,3.6,5.8,8.5,6.1,13.8c-0.8,2.5-1.5,5.1-2.3,7.5c3.5,9.7,2.9,13-3.9,21.7
		c0.8,9-3.2,15.2-11.2,18.9c-2.2,9-8.1,13.2-16.6,14c-6.3,7.8-10.9,9.4-20.8,7.5c-7.3,5.2-14.7,5.1-21.9-0.2
		c-8.8,2.5-15.5-0.2-20.6-7.5c-9-0.5-14.3-5.5-16.7-14c-8-3.7-11.8-9.9-10.9-18.9c-6.4-6.2-7.8-13.5-3.9-21.7
		C5.4,65.3,4.7,63.7,4,62c-0.5-6.5,1.2-12.1,6-16.5c-0.8-9,2.8-15.3,10.9-18.9c2.3-8.8,7.9-13.6,16.7-14.1C44.3,4.4,48.7,2.8,58.7,5
		C60.4,2.8,63.5,2.5,66,1z M110.2,25.9c-0.8-3.3-2.8-5.3-6.1-6c-2.6-2.1-7,1-9-3c-3-6.2-7.3-7.7-14.1-4.8c-1.9,0.4-3.4-0.5-5-1.4
		C71.3,6.5,67,6.6,62,11.1c-1.5,1.1-3.3,1.3-5.1,1c-6.1-2.5-9.6-1.5-13,3.9c-1.2,0.9-1.2,2.8-3.9,3.3c-8.9-1.8-11.9,4.6-13.3,12.7
		c-9.6,1.8-11.5,8.2-9.5,16.2c-7.7,7.2-8.3,8.6-3.5,19.3C9,77,9.2,78.2,16.9,85.9c0.2,12.3,0.2,12.3,10.1,17
		c0.6,8.8,5.4,13.3,14.9,11.9c3.5,9,9.8,10.5,17.9,6.6c6.4,6.9,12.9,6.7,19.2-0.1c8.7,4.8,14.4,1.2,18.2-6.3c9.7-0.3,12-1,15-12.6
		c8.6-2,11.7-7.6,9-16.6c8.5-5,8.5-11.7,3.3-19.1c6.6-7.7,3.6-13.7-2.9-18.5c1-10.6,1-10.6-9.8-17.2
		C111.2,29.4,110.7,27.6,110.2,25.9z"/>
	<path class="st1" d="M4,62c0.7,1.7,1.4,3.3,2.2,5.1C2.2,75.3,3.6,82.6,10,88.8c-0.9,9,2.9,15.3,10.9,18.9c2.4,8.5,7.7,13.5,16.7,14
		c5.1,7.3,11.8,10.1,20.6,7.5c7.2,5.3,14.6,5.3,21.9,0.2c9.9,1.9,14.5,0.3,20.8-7.5c8.5-0.8,14.4-5,16.6-14c8-3.7,12-9.9,11.2-18.9
		c6.8-8.7,7.4-12,3.9-21.7c0.7-2.4,1.5-5,2.3-7.5c0.3,3.8,0.2,7.7,2.1,11.2c0,4.3,0,8.7,0,13c-1.7,1.4-0.8,3.3-1,5
		c-1.1,12.3-5.7,23.2-13.3,32.7c-10.3,12.7-23.3,21.5-39.6,24.8c-21.9,4.4-41.3-0.8-58.3-15.2C13.3,121.6,6.1,109.5,2.8,95
		c-0.3-1.4-0.5-3-1.8-4c0-5,0-10,0-15c1.7-1.4,0.8-3.3,1-5C1.9,67.8,2.3,64.8,4,62z"/>
	<path class="st2" d="M104,159c0,0.3,0,0.7,0,1c-23,0-46,0-69,0c0-0.3-0.1-0.6-0.2-0.9C57.9,159.1,81,159,104,159z"/>
	<path class="st3" d="M1,71c0.3,0,0.7,0,1,0c-0.2,1.7,0.7,3.6-1,5C1,74.3,1,72.7,1,71z"/>
	<path class="st3" d="M136,89c0.2-1.7-0.7-3.6,1-5c0,1.7,0,3.3,0,5C136.7,89,136.3,89,136,89z"/>
	<path class="st0" d="M104,159c-23.1,0-46.1,0.1-69.2,0.1c-1.8-0.9-2.3-2.4-1.5-4.1c0.8-1.7,2.4-2,4.2-2c21.9,0,43.8,0,65.7,0
		C105.7,154.9,106.9,156.7,104,159z"/>
	<path class="st1" d="M95.2,17c2,4,6.4,0.9,9,3c-0.8,0.1-1.5,0.2-3,0.3c3.4,2.1,6.3,3.9,9.1,5.7c0.5,1.7,1,3.4,1.5,5.1
		c10.8,6.7,10.8,6.7,9.8,17.2c6.5,4.8,9.5,10.8,2.9,18.5c5.2,7.5,5.2,14.2-3.3,19.1c2.7,9.1-0.5,14.7-9,16.6
		c-3,11.6-5.3,12.4-15,12.6c-3.7,7.5-9.4,11.1-18.2,6.3c-6.3,6.7-12.8,7-19.2,0.1c-8.1,4-14.4,2.4-17.9-6.6
		c-9.5,1.3-14.4-3.1-14.9-11.9c-9.9-4.7-9.9-4.7-10.1-17C9.2,78.2,9,77,13.7,67.4c-4.8-10.8-4.2-12.1,3.5-19.3
		c-2-8-0.1-14.3,9.5-16.2c1.4-8,4.4-14.4,13.3-12.7c2.7-0.5,2.7-2.5,3.9-3.3c4.7-0.1,9-1.4,13-3.9c1.8,0.3,3.5,0.2,5.1-1
		c4.7,1.4,9.4,1.8,14.1-0.3c1.5,0.9,3.1,1.7,5,1.4C85.4,14.8,90.4,15.4,95.2,17z M42.7,59.9c1,7.7,9.3,9.2,12.2,14.7
		c-0.6,5.5-3.4,10.7-2.7,17c7.5,1.5,11.4-5.7,16.6-6.7c6.8,0.9,10.4,9.2,18.5,6c-1.3-6.2-2.4-11.7-3.5-16.8
		c4.1-4.5,9.4-7.2,12.5-12.6c-5.3-5.6-12.7-1.9-18.2-4.7c-2.8-4.7-3.8-10.3-7.8-15.6c-6.8,3.3-6.2,11.2-10.2,15.9
		C54.9,58.6,49.2,57.3,42.7,59.9z M25.9,66.4c0.3-1.7,0.7-3.5,0.9-5.3C28.3,50.6,33,41.8,40.9,35c11.5-9.9,24.7-13.1,39.5-9.3
		c3.1,0.8,6,1.4,6.6-3c-5.2-6.3-23.9-6.8-37.3-1c-18.1,7.8-31.4,27.9-29.3,44.6C21.8,68.2,23.5,68.4,25.9,66.4z M113.5,67.2
		c-1,1.2-1.3,2.6-1.5,4.1c-3.4,27.2-27.6,43.9-54.1,37.3c-1.8-0.4-3.5-1.1-5.2,0.1c-1.2,1.5-1.2,3.1,0.2,5.2
		c17.4,5.7,33.7,3,48.2-8.9c11.6-9.6,17.4-22.1,17.6-36.7C116.8,66.5,115.5,66.2,113.5,67.2z M111.2,54.3c-0.4,2.3-0.2,4.6,1.5,6.5
		c2.1,1.1,3.6,0.8,5.1-1.2c0.7-2.2,0-4.3-1.2-6.2C114.5,51.9,112.8,52.2,111.2,54.3z M27.9,78.8c-0.5-1.7-0.4-3.9-2.1-5.4
		c-1.7-0.8-3.2-0.7-4.6,1c-0.5,3.1-0.9,6.3,3.4,7.6C26,81.6,27,80.9,27.9,78.8z"/>
	<path class="st4" d="M76.1,10.8c-4.6,2.1-9.3,1.6-14.1,0.3C67,6.6,71.3,6.5,76.1,10.8z"/>
	<path class="st4" d="M95.2,17c-4.7-1.5-9.7-2.2-14.1-4.8C87.9,9.3,92.2,10.8,95.2,17z"/>
	<path class="st4" d="M57,12c-4,2.4-8.3,3.7-13,3.9C47.3,10.6,50.9,9.5,57,12z"/>
	<path class="st5" d="M110.2,25.9c-2.8-1.8-5.7-3.5-9.1-5.7c1.5-0.2,2.3-0.2,3-0.3C107.5,20.6,109.5,22.6,110.2,25.9z"/>
	<path class="st0" d="M42.7,59.9c6.5-2.6,12.2-1.3,17.5-2.9c3.9-4.7,3.4-12.6,10.2-15.9c4,5.3,5.1,10.9,7.8,15.6
		c5.5,2.8,12.9-0.9,18.2,4.7c-3.1,5.5-8.4,8.1-12.5,12.6c1.1,5.2,2.2,10.6,3.5,16.8c-8.1,3.2-11.7-5.1-18.5-6
		c-5.2,1-9.1,8.2-16.6,6.7c-0.7-6.3,2.1-11.5,2.7-17C51.9,69.1,43.7,67.6,42.7,59.9z M60.2,81.9c3.7-1.3,6-4,9.5-4.6
		c2.6,1.4,5.3,2.8,8.3,4.3c0.4-3.8-2-6.9-0.5-11.2c1.4-1.4,3.5-3.4,5.8-5.5c-3.1-1.6-6.5-0.1-10-2.4c-1-2.2-2.4-5.2-3.8-8.3
		c-2.3,2.9-2.4,6.6-4.8,8.8c-3,1.7-6.4,0.3-9.5,1.8c1.7,3.1,5.4,4.2,6.8,7.8C61.5,75.3,60.9,78.4,60.2,81.9z"/>
	<path class="st6" d="M25.9,66.4c-2.4,2-4.2,1.8-5.6-0.2c-2-16.7,11.2-36.9,29.3-44.6c13.5-5.8,32.2-5.3,37.3,1
		c-0.5,4.4-3.5,3.8-6.6,3c-14.8-3.8-28-0.6-39.5,9.3c-8,6.9-12.7,15.6-14.1,26.1C26.6,62.9,26.3,64.7,25.9,66.4z"/>
	<path class="st6" d="M113.5,67.2c2-1,3.3-0.7,5.2,1.2c-0.2,14.6-6.1,27.1-17.6,36.7C86.7,117,70.3,119.6,53,113.9
		c-1.4-2.2-1.4-3.7-0.2-5.2c1.7-1.3,3.4-0.6,5.2-0.1c26.5,6.6,50.7-10.1,54.1-37.3C112.2,69.7,112.5,68.3,113.5,67.2z"/>
	<path class="st7" d="M111.2,54.3c1.6-2.1,3.3-2.4,5.4-0.9c1.2,1.9,1.9,4,1.2,6.2c-1.4,2-3,2.3-5.1,1.2
		C111,58.9,110.7,56.6,111.2,54.3z"/>
	<path class="st8" d="M27.9,78.8C27,80.9,26,81.6,24.5,82c-4.2-1.3-3.8-4.5-3.4-7.6c1.4-1.7,2.9-1.8,4.6-1
		C27.5,74.9,27.4,77.1,27.9,78.8z"/>
	<path class="st9" d="M60.2,81.9c0.7-3.5,1.3-6.6,1.9-9.2c-1.4-3.6-5.1-4.7-6.8-7.8c3.1-1.5,6.5-0.1,9.5-1.8
		c2.3-2.3,2.5-5.9,4.8-8.8c1.4,3.1,2.8,6,3.8,8.3c3.4,2.4,6.9,0.8,10,2.4C81,67,78.9,69,77.5,70.4c-1.5,4.3,0.9,7.4,0.5,11.2
		c-2.9-1.5-5.6-3-8.3-4.3C66.2,77.9,63.8,80.5,60.2,81.9z"/>
</g>
</svg>
